<?xml version="1.0" encoding="UTF-8"?>
<svg id="Capa_2" data-name="Capa 2" xmlns="http://www.w3.org/2000/svg" version="1.1" viewBox="0 0 650.7 688">
  <defs>
    <style>
      .cls-1 {
        fill: #ebe7e1;
        stroke-width: 0px;
      }
    </style>
  </defs>
  <path class="cls-1" d="M647.8,69.3c0-.1-.1-.3-.2-.5-.5-.8-1.6.5-2.1-.2-.2-.2-.3-.4-.5-.6,0,0-.1-.2-.2-.3,0,0-5.5,0-5.5-.2,0,0,0,0-.1-.1,0,0-.2,0-.2,0,0,0,0,0-.1,0-.4-.8-.9-.4-1.4-.4-.1,0-.3,0-.4.1-.7-.4-1.5-.5-2.2-.8-1.2-.5-2.2-2.1-3.5-2.5-.2-1.3-.9-1.2-1.4-1.8-.3-.5-.5-.1-.8,0-1-.4-2-.4-3,0,0,0,0,.1-.1.2-.3-.4-.6-.4-.9.1-.2-.7-.7-.7-1-.8-1.8-.6-3.7-.8-5.4-1.9,0,0-.2-.1-.2-.2,0,0-.1-.2-.2-.3,0,0-.1-.2-.2-.3,0,0-.1,0-.2-.1,0,0-.2,0-.2,0h-.1c-.3-.3-.5-.8-.7-1.3-.3-1-.9-1.1-1.4-1.3-.7-.3-1.2,0-1.7.7-.5-.5-.9,0-1.3.4,0,0,0,.1-.1.2,0,.1-.1.2-.2.4,0,.1-.1.2-.2.3,0,.1-.1.2-.2.3-1.3,1.7-2.6,1.2-3.9,0-.1-.2-.2-.3-.4-.4,0,0-.2,0-.3,0s-.2,0-.2,0c0,0,0,0,0,0,0-.2-.1-.3-.2-.4-.4-.6-.9-.6-1.3-.4-.8-.9-1.6-.4-2.4.3h0c-.1.2-.3,0-.4.3,0,0,0,.1-.1,0-.1,0-.2.2-.3.4,0,0-.1.2-.2.3h0c0,0-.1.2-.2.2,0,0-.1,0-.2.1,0,0,0,.1,0,.2h0s0,0,0,0c-.1,0-.2-.1-.3.1,0,0-.2.2-.2.4-.3.8-.7,1.5-1.3,1.4-.2,0-.4.1-.6.4-.8,1.2-1.8.6-2.7.9-.5.2-1,.1-1.5.6-.5,0-1-.8-1.6-.3,0,.2-.2.3-.3.4-.1,0-.3,0-.4-.1-.5.2-1-.2-1.4,0-.1,0-.2-.2-.3-.3-1.4-1.1-2.9-1.2-4.4-2-.1,0-.2.2-.3.2-.6-.6-1.3-.8-1.9-1-.2-.2-.3-.4-.5-.7-.3-.3-.6-.6-.9-1-.2-.2-.4-.4-.5-.6,0,0-.1-.2-.2-.2-.1,0-.2-.2-.3-.3,0,0-.1-.1-.2-.2,0,0-.1-.2-.2-.2,0,0,0,0,0-.1,0,0-.1-.2-.2-.3,0,0,0,0,0-.1,0,0-.1-.2-.2-.2,0,0-.2-.1-.2-.2-.6-.5-1.3-.7-1.9-1.1-.3-.3-.5-.5-.8-.8,0,0,0,0,0-.1s0,0-.1,0c-.5,0-.8.5-1.2.8-.5-.1-.9.1-1.3.7,0,0-.2.1-.2.2,0,0-.1.2-.2.2,0,0-.1.1-.2.2-.2.1-.3.2-.5.4,0,0-.1.2-.2.4,0,0,0,0,0,.1,0,0,0,0-.1,0-.2,0-.3.4-.5.5,0,0-.2.1-.3.2,0,0-.2.2-.2.3,0,.2,0,.3-.2.4-.3,0-.6.1-.8.4-.3,0-.5-.2-.7-.2-.3.1-.6.2-.7.7,0,0,0,0,0,0,0,0,0,0-.1,0-.3-.2-.6-.2-.8-.4-.3-.2-.7-.2-.8-.8,0-.2-.1-.3-.2-.4h0c-1.6-.8-3.2-1.2-4.8-1.2,0,0-.1-.2-.2-.3,0,0-.2-.1-.3-.2,0,0-.2,0-.3,0,0,0-.2.1-.3.3,0,0,0,0,0,0-.2,0-.3-.1-.5-.2,0,0,0-.2,0-.3,0-.2-.1-.4-.3-.6,0,0,0,0,0,0,0-.3-.1-.5-.3-.7-.7-1-1.4-2.3-2.4-2.4-.3-.3-.1-.7,0-1.1-.2-1-.6-1-1-.9-.4,0-.7.3-1.1,0-.6-.4-1.2-.3-1.9-.2-1.4.8-3,.8-4.2.3,0-.1-.2-.3-.3-.4,0-.2-.1-.3-.2-.4-.1-.2-.2-.3-.4-.4,0,0-.2,0-.3,0-.1,0-.3,0-.4,0-.1-.2-.2-.5-.3-.8.1-.3.2-.6.2-.9-.7-3.2-2.3-4-3.9-4.6-1.1-.4-2.1-1-3-2.5-.2-.4-.5-.7-.8-.8-1-.3-2.1-.5-3-1.4-.2-.2-.5-.2-.7.1,0,0,0-.1,0-.2-.3-.5-.7-.8-1.1-.8h0c-.2-.3-.5-.7-.7-1,0-.2,0-.4,0-.6-.6-1.6-1.6-1.6-2.3-2.7,0,0-.2,0-.3,0,0,0,0,0-.1,0,0-.1-.1-.3-.2-.4,0,0-.1-.2-.2-.3h0c0-.1,0-.2-.1-.3,0,0,0,0-.1,0,0,0-.1,0-.2-.1,0,0-.2-.2-.2-.3h0c-.3-.4-.5-.2-.8,0,0,0,0,.1-.1,0-.1,0-.2.2-.3.3,0,.2-.2.2-.3.2,0,0-.2,0-.2.1-.2,0-.3,0-.5.2,0,0-.2.2-.2.3-.1.1-.3.3-.4.3-1.1.3-1.1,1.7-1,3.3,0,.2,0,.4.1.5-.3.4-.6,1-1,1,0,0-.2,0-.3.1,0,0-.2.1-.3.2-.2.2-.4.4-.5.9-.2.4-.5.4-.8.3-.5-.2-.9,0-1.3.7-.3.5-.7.7-1,1.2-.5.1-.7.5-.7,1.2,0,0,0,0,0,0-.1,0-.2,0-.3,0,0,0-.1.1-.2.2-.4-.4-.9-.2-1.4,0-.5-.4-.9-.6-1.2.4-.1.2-.1.5-.2.7h0c0,.1-.1.3-.2.3h0c0,.2-.1.3-.2.4-.1.2-.1.6-.2.9-.4.8-.7,1.8-1.4,1.9-.4,0-.5.6-.7,1-.1,0-.2-.2-.4-.2-.1,0-.3,0-.4.2-.3.2-.5.4-.7.8,0,0,0,0,0-.1-.4-.5-.9-.2-1.4-.2-.1-.3-.3-.5-.5-.6-.3-.3-.6-.7-.8-1.1,0,0-.2-.1-.3-.1-.9-.1-1.9-.3-2.8-.4-.6,0-1.3-.7-1.9.1,0-.3-.1-.6-.3-.8,0-.1-.1-.2-.2-.4,0,0,0-.1-.1-.2,0-.1-.1-.2-.2-.3,0,0,0-.1,0-.2,0-.1-.1-.2-.2-.3,0-.1-.1-.2-.2-.4-.2-.5-.6-.5-.9-.4-1,.7-1.7-.8-2.5-1.4-.1-.2-.3-.4-.4-.6,0,0,0-.1-.1-.2,0,0-.1-.2-.2-.3,0,0-.1-.2-.2-.3-.2-.1-.4,0-.5-.3-.2-.2-.3-.2-.5-.2,0,0-.2,0-.3,0-.3.3-.5.3-.8.4-1.3,0-2.6-.4-3.9-.4,0-.1,0-.3,0-.4-.1-.3-.2-.6-.4-.7,0,0,0,0-.1-.1,0,0-.2-.1-.3-.2,0,0,0,0-.1,0,0,0,0,0-.1,0,0,0-.2,0-.3,0-.2,0-.4,0-.6,0-.6,0-1.2-.1-1.6-.9-.7-.8-1.2,0-1.6.8,0,.1-.1.2-.2.3-.1.2-.2.3-.3.5-.5.6-1.2.5-1.8.8-.7.4-1.3.3-1.8-.6-.7-.3-1.4-1.3-2.2-.6-.3.7-.8.4-1.1.9-.1.2-.3.3-.4.3,0,0-.2,0-.2,0-.1,0-.2,0-.4,0,0,0-.2,0-.2.2,0,0,0,0-.1.1,0,0-.1.2-.2.3-.1.2-.3.4-.4.6-.1,0-.3,0-.4.1,0,0,0,0,0-.1,0-.2-.1-.3-.2-.4-.2-.1-.3-.2-.5,0-1.5.9-3.1,1.2-4.7,1.2-.3,0-.5.7-.9.8-2,.3-3.9.6-5.7-1.3,0-.1-.1-.2-.2-.3,0,0-.1-.2-.2-.3-.2,0-.4-.4-.5-.7-.2-.3-.3-.5-.5-.7-.1-.1-.2-.2-.4-.3,0,0-.1,0-.1-.1-.2-.4-.3-.5-.6-.4-.2.2-.5.3-.7.8-.2.3-.3.7-.5.8-2.2,1.4-4.4.2-5.8-3.3-.7-.9-1.3-2-2.2-1.8,0,0,0,0-.1,0-.4-.3-.8.2-1.1.3,0,0-.2.1-.2.2-.1.1-.2.2-.3.3,0,0-.2.1-.2.2-.1.1-.2.2-.3.4-1.1,1.2-2.2,2-3.5,2.7,0,0,0,0,0,0-.2-.3-.4-.5-.6-.5,0,0-.2,0-.3,0,0,0,0,0-.1,0,0,0,0,0-.1-.1,0,0,0,0,0,0,0-.1,0-.3,0-.4,0-.1-.1-.3-.2-.4,0-.1-.1-.2-.2-.3-.1-.1-.2-.3-.3-.4,0,0-.1-.2-.2-.3,0,0-.2-.1-.2-.2-.6-.1-1.2-1-1.8-.7-.4,0-.7,0-1.1-.1,0,0,0-.2-.1-.3-.8.1-1,1.2-1.2,2.4,0,0,0,0,0,0-.4,0-.5.6-.7,1.1-.9,2.4-1.3,5.4-2.4,7.6,0,.1,0,.3-.1.5,0,.3-.1.6-.2,1-.3.9-.6,1.9-1,2.6-.2.2-.4.3-.6.5-.1,0-.3.1-.4.2-1.2,1.3-2.3,2.8-3.7,3.7-.4.2-.8.5-.9,1.3-.3.3-1.2.1-1.5.6v.4c-.8,0-1.8,0-1.9,0,0-.1-.1-.3-.2-.5-.5-.8-1.6.5-2.1-.2-.2-.2-.3-.4-.5-.6,0,0-.1-.2-.2-.3,0,0-5.5,0-5.5-.2h-.1c0-.1-.2-.2-.2-.1,0,0,0,0-.1,0-.4-.8-.9-.4-1.4-.4-.1,0-.3,0-.4.1-.7-.4-1.5-.5-2.2-.8-1.2-.5-2.2-2.1-3.5-2.5-.2-1.3-.9-1.2-1.4-1.8-.3-.5-.5-.1-.8,0-1-.4-2-.4-3,0,0,0,0,.1-.1.2-.3-.4-.6-.4-.9.1-.2-.7-.7-.7-1-.8-1.8-.6-3.7-.8-5.4-1.9,0,0-.2-.1-.2-.2,0,0-.1-.2-.2-.3,0,0-.1-.2-.2-.3,0,0-.1,0-.2-.1,0,0-.2,0-.2,0h-.1c-.3-.3-.5-.8-.7-1.3-.3-1-.9-1.1-1.4-1.3-.7-.3-1.2,0-1.7.7-.5-.5-.9,0-1.3.4,0,0,0,.1-.1.2,0,.1-.1.2-.2.4,0,.1-.1.2-.2.3,0,.1-.1.2-.2.3-1.3,1.7-2.6,1.2-3.9,0-.1-.2-.2-.3-.4-.4,0,0-.2,0-.3,0s-.2,0-.2,0c0,0,0,0,0,0,0-.2-.1-.3-.2-.4-.4-.6-.9-.6-1.3-.4-.8-.9-1.6-.4-2.4.3h0c-.1.2-.3,0-.4.3,0,0,0,.1-.1,0-.1,0-.2.2-.3.4,0,0-.1.2-.2.3h0c0,0-.1.2-.2.2,0,0-.1,0-.2.1,0,0,0,.1,0,.2h0s0,0,0,0c-.1,0-.2-.1-.3.1,0,0-.2.2-.2.4-.3.8-.7,1.5-1.3,1.4-.2,0-.4.1-.6.4-.8,1.2-1.8.6-2.7.9-.5.2-1,.1-1.5.6-.5,0-1-.8-1.6-.3,0,.2-.2.3-.3.4-.1,0-.3,0-.4-.1-.5.2-1-.2-1.4,0-.1,0-.2-.2-.3-.3-1.4-1.1-2.9-1.2-4.4-2-.1,0-.2.2-.3.2-.6-.6-1.3-.8-1.9-1-.2-.2-.3-.4-.5-.7-.3-.3-.6-.6-.9-1-.2-.2-.4-.4-.5-.6,0,0-.1-.2-.2-.2-.1,0-.2-.2-.3-.3,0,0-.1-.1-.2-.2,0,0-.1-.2-.2-.2,0,0,0,0,0-.1,0,0-.1-.2-.2-.3,0,0,0,0,0-.1,0,0-.1-.2-.2-.2,0,0-.2-.1-.2-.2-.6-.5-1.3-.7-1.9-1.1-.3-.3-.5-.5-.8-.8,0,0,0,0,0-.1,0,0,0,0-.1,0-.5,0-.8.5-1.2.8-.5-.1-.9.1-1.3.7,0,0-.2.1-.2.2,0,0-.1.2-.2.2,0,0-.1.1-.2.2-.2.1-.3.2-.5.4,0,0-.1.2-.2.4,0,0,0,0,0,.1,0,0,0,0-.1,0-.2,0-.3.4-.5.5,0,0-.2.1-.3.2,0,0-.2.2-.2.3,0,.2,0,.3-.2.4-.3,0-.6.1-.8.4-.3,0-.5-.2-.7-.2-.3.1-.6.2-.7.7,0,0,0,0,0,0,0,0,0,0-.1,0-.3-.2-.6-.2-.8-.4-.3-.2-.7-.2-.8-.8,0-.2-.1-.3-.2-.4h0c-1.6-.8-3.2-1.2-4.8-1.2,0,0-.1-.2-.2-.3,0,0-.2-.1-.3-.2,0,0-.2,0-.3,0,0,0-.2.1-.3.3,0,0,0,0,0,0-.2,0-.3-.1-.5-.2,0,0,0-.2,0-.3,0-.2-.1-.4-.3-.6,0,0,0,0,0,0,0-.3-.1-.5-.3-.7-.7-1-1.4-2.3-2.4-2.4-.3-.3-.1-.7,0-1.1-.2-1-.6-1-1-.9-.4,0-.7.3-1.1,0-.6-.4-1.2-.3-1.9-.2-1.4.8-3,.8-4.2.3,0-.1-.2-.3-.3-.4,0-.2-.1-.3-.2-.4-.1-.2-.2-.3-.4-.4,0,0-.2,0-.3,0-.1,0-.3,0-.4,0-.1-.2-.2-.5-.3-.8.1-.3.2-.6.2-.9-.7-3.2-2.3-4-3.9-4.6-1.1-.4-2.1-1-3-2.5-.2-.4-.5-.7-.8-.8-1-.3-2.1-.5-3-1.4-.2-.2-.5-.2-.7.1,0,0,0-.1,0-.2-.3-.5-.7-.8-1.1-.8h0c-.2-.3-.5-.7-.7-1,0-.2,0-.4,0-.6-.6-1.6-1.6-1.6-2.3-2.7,0,0-.2,0-.3,0,0,0,0,0-.1,0,0-.1-.1-.3-.2-.4,0,0-.1-.2-.2-.3h0c0-.1,0-.2-.1-.3,0,0,0,0-.1,0,0,0-.1,0-.2-.1,0,0-.2-.2-.2-.3h0c-.3-.4-.5-.2-.8,0,0,0,0,.1-.1,0-.1,0-.2.2-.3.3,0,.2-.2.2-.3.2,0,0-.2,0-.2.1-.2,0-.3,0-.5.2,0,0-.2.2-.2.3-.1.1-.3.3-.4.3-1.1.3-1.1,1.7-1,3.3,0,.2,0,.4.1.5-.3.4-.6,1-1,1,0,0-.2,0-.3.1,0,0-.2.1-.3.2-.2.2-.4.4-.5.9-.2.4-.5.4-.8.3-.5-.2-.9,0-1.3.7-.3.5-.7.7-1,1.2-.5.1-.7.5-.7,1.2,0,0,0,0,0,0-.1,0-.2,0-.3,0,0,0-.1.1-.2.2-.4-.4-.9-.2-1.4,0-.5-.4-.9-.6-1.2.4h0c-.1.1-.1.5-.2.7h0c0,.1-.1.3-.2.3h0c0,.2-.1.3-.2.4-.1.2-.1.6-.2.9-.4.8-.7,1.8-1.4,1.9-.4,0-.5.6-.7,1-.1,0-.2-.2-.4-.2-.1,0-.3,0-.4.2-.3.2-.5.4-.7.8,0,0,0,0,0-.1-.4-.5-.9-.2-1.4-.2-.1-.3-.3-.5-.5-.6-.3-.3-.6-.7-.8-1.1,0,0-.2-.1-.3-.1-.9-.1-1.9-.3-2.8-.4-.6,0-1.3-.7-1.9.1,0-.3-.1-.6-.3-.8,0-.1-.1-.2-.2-.4,0,0,0-.1-.1-.2,0-.1-.1-.2-.2-.3,0,0,0-.1,0-.2,0-.1-.1-.2-.2-.3,0-.1-.1-.2-.2-.4-.2-.5-.6-.5-.9-.4-1,.7-1.7-.8-2.5-1.4-.1-.2-.3-.4-.4-.6,0,0,0-.1-.1-.2,0,0-.1-.2-.2-.3,0,0-.1-.2-.2-.3-.2-.1-.4,0-.5-.3-.2-.2-.3-.2-.5-.2,0,0-.2,0-.3,0-.3.3-.5.3-.8.4-1.3,0-2.6-.4-3.9-.4,0-.1,0-.3,0-.4-.1-.3-.2-.6-.4-.7,0,0,0,0-.1-.1,0,0-.2-.1-.3-.2,0,0,0,0-.1,0,0,0,0,0-.1,0,0,0-.2,0-.3,0-.2,0-.4,0-.6,0-.6,0-1.2-.1-1.6-.9-.7-.8-1.2,0-1.6.8,0,.1-.1.2-.2.3-.1.2-.2.3-.3.5-.5.6-1.2.5-1.8.8-.7.4-1.3.3-1.8-.6-.7-.3-1.4-1.3-2.2-.6-.3.7-.8.4-1.1.9-.1.2-.3.3-.4.3,0,0-.2,0-.2,0-.1,0-.2,0-.4,0,0,0-.2,0-.2.2,0,0,0,0-.1.1,0,0-.1.2-.2.3-.1.2-.3.4-.4.6-.1,0-.3,0-.4.1,0,0,0,0,0-.1,0-.2-.1-.3-.2-.4-.2-.1-.3-.2-.5,0-1.5.9-3.1,1.2-4.7,1.2-.3,0-.5.7-.9.8-2,.3-3.9.6-5.7-1.3,0-.1-.1-.2-.2-.3,0,0-.1-.2-.2-.3-.2,0-.4-.4-.5-.7-.2-.3-.3-.5-.5-.7-.1-.1-.2-.2-.4-.3,0,0-.1,0-.1-.1-.2-.4-.3-.5-.6-.4-.2.2-.5.3-.7.8-.2.3-.3.7-.5.8-2.2,1.4-4.4.2-5.8-3.3-.7-.9-1.3-2-2.2-1.8,0,0,0,0-.1,0-.4-.3-.8.2-1.1.3,0,0-.2.1-.2.2-.1.1-.2.2-.3.3,0,0-.2.1-.2.2-.1.1-.2.2-.3.4-1.1,1.2-2.2,2-3.5,2.7,0,0,0,0,0,0-.2-.3-.4-.5-.6-.5,0,0-.2,0-.3,0,0,0,0,0-.1,0,0,0,0,0-.1-.1,0,0,0,0,0,0,0-.1,0-.3,0-.4,0-.1-.1-.3-.2-.4,0-.1-.1-.2-.2-.3-.1-.1-.2-.3-.3-.4,0,0-.1-.2-.2-.3s-.2-.1-.2-.2c-.6-.1-1.2-1-1.8-.7-.4,0-.7,0-1.1-.1,0,0,0-.2-.1-.3-.8.1-1,1.2-1.2,2.4,0,0,0,0,0,0-.4,0-.5.6-.7,1.1-.9,2.4-1.3,5.4-2.4,7.6,0,.1,0,.3-.1.5,0,.3-.1.6-.2,1-.3.9-.6,1.9-1,2.6-.2.2-.4.3-.6.5-.1,0-.3.1-.4.2-1.2,1.3-2.4,2.8-3.7,3.7-.4.2-.8.5-.9,1.3-.1,0-.3.1-.4.2v-.8c-.1,0-2.8,0-2.9,0,0-.1-.1-.3-.2-.5-.5-.8-1.6.5-2.1-.2-.2-.2-.3-.4-.5-.6,0,0-.1-.2-.2-.3,0,0-5.5,0-5.5-.2h-.1c0-.1-.2-.2-.2-.1,0,0,0,0-.1,0-.4-.8-.9-.4-1.4-.4-.1,0-.3,0-.4.1-.7-.4-1.5-.5-2.2-.8-1.2-.5-2.2-2.1-3.5-2.5-.2-1.3-.9-1.2-1.4-1.8-.3-.5-.5-.1-.8,0-1-.4-2-.4-3,0,0,0,0,.1-.1.2-.3-.4-.6-.4-.9.1-.2-.7-.7-.7-1-.8-1.8-.6-3.7-.8-5.4-1.9,0,0-.2-.1-.2-.2,0,0-.1-.2-.2-.3,0,0-.1-.2-.2-.3,0,0-.1,0-.2-.1,0,0-.2,0-.2,0h-.1c-.3-.3-.5-.8-.7-1.3-.3-1-.9-1.1-1.4-1.3-.7-.3-1.2,0-1.7.7-.5-.5-.9,0-1.3.4,0,0,0,.1-.1.2,0,.1-.1.2-.2.4,0,.1-.1.2-.2.3,0,.1-.1.2-.2.3-1.3,1.7-2.6,1.2-3.9,0-.1-.2-.2-.3-.4-.4,0,0-.2,0-.3,0s-.2,0-.2,0c0,0,0,0,0,0,0-.2-.1-.3-.2-.4-.4-.6-.9-.6-1.3-.4-.8-.9-1.6-.4-2.4.3h0c-.1.2-.3,0-.4.3,0,0,0,.1-.1,0-.1,0-.2.2-.3.4,0,0-.1.2-.2.3h0c0,0-.1.2-.2.2,0,0-.1,0-.2.1,0,0,0,.1,0,.2h0s0,0,0,0c-.1,0-.2-.1-.3.1,0,0-.2.2-.2.4-.3.8-.7,1.5-1.3,1.4-.2,0-.4.1-.6.4-.8,1.2-1.8.6-2.7.9-.5.2-1,.1-1.5.6-.5,0-1-.8-1.6-.3,0,.2-.2.3-.3.4-.1,0-.3,0-.4-.1-.5.2-1-.2-1.4,0-.1,0-.2-.2-.3-.3-1.4-1.1-2.9-1.2-4.4-2-.1,0-.2.2-.3.2-.6-.6-1.3-.8-1.9-1-.2-.2-.3-.4-.5-.7-.3-.3-.6-.6-.9-1-.2-.2-.4-.4-.5-.6,0,0-.1-.2-.2-.2-.1,0-.2-.2-.3-.3,0,0-.1-.1-.2-.2,0,0-.1-.2-.2-.2,0,0,0,0,0-.1,0,0-.1-.2-.2-.3,0,0,0,0,0-.1,0,0-.1-.2-.2-.2,0,0-.2-.1-.2-.2-.6-.5-1.3-.7-1.9-1.1-.3-.3-.5-.5-.8-.8,0,0,0,0,0-.1,0,0,0,0-.1,0-.5,0-.8.5-1.2.8-.5-.1-.9.1-1.3.7,0,0-.2.1-.2.2,0,0-.1.2-.2.2,0,0-.1.1-.2.2-.2.1-.3.2-.5.4,0,0-.1.2-.2.4,0,0,0,0,0,.1,0,0,0,0-.1,0-.2,0-.3.4-.5.5,0,0-.2.1-.3.2,0,0-.2.2-.2.3,0,.2,0,.3-.2.4-.3,0-.6.1-.8.4-.3,0-.5-.2-.7-.2-.3.1-.6.2-.7.7,0,0,0,0,0,0,0,0,0,0-.1,0-.3-.2-.6-.2-.8-.4-.3-.2-.7-.2-.8-.8,0-.2-.1-.3-.2-.4h0c-1.6-.8-3.2-1.2-4.8-1.2,0,0-.1-.2-.2-.3,0,0-.2-.1-.3-.2,0,0-.2,0-.3,0,0,0-.2.1-.3.3,0,0,0,0,0,0-.2,0-.3-.1-.5-.2,0,0,0-.2,0-.3,0-.2-.1-.4-.3-.6,0,0,0,0,0,0,0-.3-.1-.5-.3-.7-.7-1-1.4-2.3-2.4-2.4-.3-.3-.1-.7,0-1.1-.2-1-.6-1-1-.9-.4,0-.7.3-1.1,0-.6-.4-1.2-.3-1.9-.2-1.4.8-3,.8-4.2.3,0-.1-.2-.3-.3-.4,0-.2-.1-.3-.2-.4-.1-.2-.2-.3-.4-.4,0,0-.2,0-.3,0-.1,0-.3,0-.4,0-.1-.2-.2-.5-.3-.8.1-.3.2-.6.2-.9-.7-3.2-2.3-4-3.9-4.6-1.1-.4-2.1-1-3-2.5-.2-.4-.5-.7-.8-.8-1-.3-2.1-.5-3-1.4-.2-.2-.5-.2-.7.1,0,0,0-.1,0-.2-.3-.5-.7-.8-1.1-.8h0c-.2-.3-.5-.7-.7-1,0-.2,0-.4,0-.6-.6-1.6-1.6-1.6-2.3-2.7,0,0-.2,0-.3,0,0,0,0,0-.1,0,0-.1-.1-.3-.2-.4,0,0-.1-.2-.2-.3h0c0-.1,0-.2-.1-.3,0,0,0,0-.1,0,0,0-.1,0-.2-.1,0,0-.2-.2-.2-.3h0c-.3-.4-.5-.2-.8,0,0,0,0,.1-.1,0-.1,0-.2.2-.3.3,0,.2-.2.2-.3.2,0,0-.2,0-.2.1-.2,0-.3,0-.5.2,0,0-.2.2-.2.3-.1.1-.3.3-.4.3-1.1.3-1.1,1.7-1,3.3,0,.2,0,.4.1.5-.3.4-.6,1-1,1,0,0-.2,0-.3.1,0,0-.2.1-.3.2-.2.2-.4.4-.5.9-.2.4-.5.4-.8.3-.5-.2-.9,0-1.3.7-.3.5-.7.7-1,1.2-.5.1-.7.5-.7,1.2,0,0,0,0,0,0-.1,0-.2,0-.3,0,0,0-.1.1-.2.2-.4-.4-.9-.2-1.4,0-.5-.4-.9-.6-1.2.4h0c-.1.1-.1.5-.2.7h0c0,.1-.1.3-.2.3h0c0,.2-.1.3-.2.4-.1.2-.1.6-.2.9-.4.8-.7,1.8-1.4,1.9-.4,0-.5.6-.7,1-.1,0-.2-.2-.4-.2-.1,0-.3,0-.4.2-.3.2-.5.4-.7.8,0,0,0,0,0-.1-.4-.5-.9-.2-1.4-.2-.1-.3-.3-.5-.5-.6-.3-.3-.6-.7-.8-1.1,0,0-.2-.1-.3-.1-.9-.1-1.9-.3-2.8-.4-.6,0-1.3-.7-1.9.1,0-.3-.1-.6-.3-.8,0-.1-.1-.2-.2-.4,0,0,0-.1-.1-.2,0-.1-.1-.2-.2-.3,0,0,0-.1,0-.2,0-.1-.1-.2-.2-.3,0-.1-.1-.2-.2-.4-.2-.5-.6-.5-.9-.4-1,.7-1.7-.8-2.5-1.4-.1-.2-.3-.4-.4-.6,0,0,0-.1-.1-.2,0,0-.1-.2-.2-.3,0,0-.1-.2-.2-.3-.2-.1-.4,0-.5-.3-.2-.2-.3-.2-.5-.2,0,0-.2,0-.3,0-.3.3-.5.3-.8.4-1.3,0-2.6-.4-3.9-.4,0-.1,0-.3,0-.4-.1-.3-.2-.6-.4-.7,0,0,0,0-.1-.1,0,0-.2-.1-.3-.2,0,0,0,0-.1,0,0,0,0,0-.1,0,0,0-.2,0-.3,0-.2,0-.4,0-.6,0-.6,0-1.2-.1-1.6-.9-.7-.8-1.2,0-1.6.8,0,.1-.1.2-.2.3-.1.2-.2.3-.3.5-.5.6-1.2.5-1.8.8-.7.4-1.3.3-1.8-.6-.7-.3-1.4-1.3-2.2-.6-.3.7-.8.4-1.1.9-.1.2-.3.3-.4.3,0,0-.2,0-.2,0-.1,0-.2,0-.4,0,0,0-.2,0-.2.2,0,0,0,0-.1.1,0,0-.1.2-.2.3-.1.2-.3.4-.4.6-.1,0-.3,0-.4.1,0,0,0,0,0-.1,0-.2-.1-.3-.2-.4-.2-.1-.3-.2-.5,0-1.5.9-3.1,1.2-4.7,1.2-.3,0-.5.7-.9.8-2,.3-3.9.6-5.7-1.3,0-.1-.1-.2-.2-.3,0,0-.1-.2-.2-.3-.2,0-.4-.4-.5-.7-.2-.3-.3-.5-.5-.7-.1-.1-.2-.2-.4-.3,0,0-.1,0-.1-.1-.2-.4-.3-.5-.6-.4-.2.2-.5.3-.7.8-.2.3-.3.7-.5.8-2.2,1.4-4.4.2-5.8-3.3-.7-.9-1.3-2-2.2-1.8,0,0,0,0-.1,0-.4-.3-.8.2-1.1.3,0,0-.2.1-.2.2-.1.1-.2.2-.3.3,0,0-.2.1-.2.2-.1.1-.2.2-.3.4-1.1,1.2-2.2,2-3.5,2.7,0,0,0,0,0,0-.2-.3-.4-.5-.6-.5,0,0-.2,0-.3,0,0,0,0,0-.1,0,0,0,0,0-.1-.1,0,0,0,0,0,0,0-.1,0-.3,0-.4,0-.1-.1-.3-.2-.4,0-.1-.1-.2-.2-.3-.1-.1-.2-.3-.3-.4,0,0-.1-.2-.2-.3s-.2-.1-.2-.2c-.6-.1-1.2-1-1.8-.7-.4,0-.7,0-1.1-.1,0,0,0-.2-.1-.3-.8.1-1,1.2-1.2,2.4,0,0,0,0,0,0-.4,0-.5.6-.7,1.1-.9,2.4-1.3,5.4-2.4,7.6,0,.1,0,.3-.1.5,0,.3-.1.6-.2,1-.3.9-.6,1.9-1,2.6-.2.2-.4.3-.6.5-.1,0-.3.1-.4.2-1.2,1.3-2.3,2.8-3.7,3.7-.4.2-.8.5-.9,1.3-.3.3-1.2.1-1.5.6v599.7c0,.1,1.8.3,1.8.4,0,2,.1,2.1,1.2,1.5.3,0,.5,0,.8,0,.1,0,.2,0,.3,0,.2-.2.5,0,.7-.3.9-.2,1.8-.9,2.7-1.1.3,0,.5,0,.8.2.7.4,1.5.3,2.3.2.5,0,.9,0,1.4,0,.3,0,.8-.3,1.1.4.5.3,1.1.4,1.6.4,0,.1,0,.2,0,.3.8,1.6,2,2.2,3,3.5.3,0,.6.2.9.3.4.6.8,1.2,1.3,1.5.4.2.8.8,1,1.6.1.4.3.8.6.9.3.8.7,1.3,1.3,1,.4-.2.7.3,1.1.4,0,0,0,0,0,0,.5.6.9,1.2,1.6.9.2.1.5.2.7.4.5.5.9.5,1.4,0,.2-.3.5-.5.7-.4.5,0,.9-.5,1.1-1.3,0,0,0,0,.1-.1.4,0,.7-.5,1.1,0,.2.2.5,0,.7-.3.3-.5.8-.9,1.2-1.3.1.1.3.2.4.4.8-.1,1.6.3,2.4-.2.6,0,1.1-.2,1.6-.7.6-.6,1.3-1,2-1.1.4,0,.8-.4,1-1.1,0,0,0-.2,0-.3.1,0,.2-.2.3-.4.7-.7,1.5-.8,2-1.9.1,0,.2-.2.2-.4.3-.2.6-.2.8,0,.5.4.9.2,1.4-.4,0-.3.2-.4.3-.7,0,0,0,0,.1,0,.3.5.7.8,1.2.9.1,0,.2-.1.4-.2.6.7,1.2,1,1.9.5.3-.2.6,0,.9.3.4.4.8.9,1.3.6.1.1.3.1.4.4,0,0,0,.1,0,.2,0,.1.2.2.3.2,0,0,.2,0,.2,0,0,0,.2,0,.2,0,0,0,.2,0,.2.1,0,0,0,0,.1,0,0,0,.2,0,.3,0,0,0,.2-.1.2-.2,0,0,0,0,0-.2.7.3,1.3.9,2,.2.2,0,.4-.4.6-.6,0,.2,0,.3.1.5,0,.8.4,1.3.8,1.6.4.3.7.8.9,1.6.2.3.3.7.6.8,0,0,0,0,.1,0,.3.8.6,1.4,1.3,1.4.2,0,.3.2.4.5.1.5.4.7.6.8,0,.2.2.3.3.3h0c.5.9,1.2,1.6,1.2,3.2.7.9,1.2,2.4,1.8,3.4.1,0,.2,0,.3.1,0,0,.1.2.2.3.1.2.2.2.3.2,0,.1,0,.2.1.2.4.5.7,1,1.1,1.6,0,.6.3,1,.6,1.1,0,0,0,0,.1,0,.1.2.3.3.5.3-.1,0-.2-.1-.3-.2.1,0,.2,0,.3.2,0,0,.1,0,.2,0,.5,1,1.1,1.7,1.6,2.5.2.4.5,0,.7.4,0,0,.1,0,.2,0,0,.1.2.3.3.3,0,0,0,0,.1,0,.1.1.2.1.3,0,0,.1,0,.2.1.3,0,0,.1,0,.1,0h.8c.8,1.2.9,1.2,1.4.4.2-.2.4-.5.4-.9-.1-1,.4-1.2.6-1.7.2-.1.3-.4.4-.7.4,0,.7.2.8-.8,0,0,0-.1,0-.2,0,0,.2-.1.2-.1.5.2,1-.4,1.5-.3,0,0,.2,0,.3,0,0,0,0,0,.1,0,.4,0,.8,0,1.2-.4.6-.5,1.1-1.3,1.4-2.4.1-.4.3-.6.5-.9.5-.5.5-1.6.7-2.3,0-1,.3-1.7.8-2.1.5.4.9.5,1.4,0,.3-.4.7-.5,1-.7,1.7-1.5,3.5-1.3,5.2-1.3,0,0,.2-.1.2-.1.6.5,1.6.6,2.3.3.1.1.2.2.4.2,1.2.6,2.3.3,3.5,0,0,0,.2-.2.3-.3,0,0,0,0,0,0,.2.1.5,0,.7.2,0,0,0,.2,0,.3.1.2.3.2.4,0,.1-.1.3-.1.4,0,0,0,.1,0,.2,0,0,.1,0,.2.1.3,0,0,.2,0,.3,0,0,0,0-.2,0-.3h0c.1,0,.2-.1.2-.3.3-.5.7-.7,1.2-.5.3.1.9.3.8-.9,0,0,0-.1.1-.2,0-.2,0-.4,0-.6.6,1.4,1.6,1.5,2.4,2.2,0,0,.2,0,.3,0,0,0,0,0,0,0,0,0,0,.1,0,.2,0,.2.1.3.2.4,0,0,0,0,.1,0,.2,0,.5,0,.6.7.3,1,.5,0,.8-.2,0,.1.2.2.3.3.1,0,.2.1.3.1.4-.3,1.1.2,1.4-.5.7.8,1.4,1.1,2.2,1.1.1,0,.2,0,.3,0,.2.5.5.8.7.3.2-.4.6-.3.8-.7,0,0,.1,0,.1-.1,0,0,.1,0,.2,0,.5.2.9-.3,1.3-.6,1.1-.7,2.1-1.6,3.2-.7.1.1.3-.2.5-.3.2-.2.4-.2.6-.3,0,0,0,0,0,0,.9.6,1.7,1.2,2.6,1.5,0,.1,0,.3,0,.4,0,.2,0,.3,0,.5,0,.1.1.2.2.3,0,0,.1.2.2.3,0,0,.1.2.2.3,0,0,.1.1.2.1,0,0,.1.1.2.2,0,0,.1.1.2.1h0c.8.1,1.3,1.4,2.1,1.5.5.5,1.1.2,1.7.3.1-.1.3-.3.4-.4.1,0,.3,0,.4,0,.1.8.4,1.4.6,2.1,0,.1.1.3.2.4h0c0,.2.3.1.4.4h0c0,.1.1.2.2.3,0,.1.1.3.2.4h0c.1.2.2.2.3.1,0,0,.1.2.2.2,0,0,0,0,.1.1.2,0,.5.3.7,0,.2-.4.5-.3.7,0,.2.3.4.3.5,0,.3-.4.5-.3.6.3.2,1.2.6.4.9.3h0c0,0,.2-.3.2-.5,0,0,0-.2,0-.2,0-.1.2-.2.2-.3.1.2.3,0,.4.3,0,0,.1,0,.2,0,0,0,.2.2.2.3,0,0,0,0,.1,0,.1-.1.2-.2.3-.3,0,0,.1,0,.2,0,0-.1.1-.1.2,0,.1,0,.3,0,.4,0,0-.3.1-.5.2-.8,0-.3,0-.7,0-1,.4.1.8,0,1.2,0,.8.9,1.5,0,2.2-.5.4,0,.8.2,1.1-.4,0,0,.1.1.2.2.1,0,.3,0,.4,0,.5-.2,1-.2,1.6-.4,0,0,0,0,0,0v.3c.3,0,.5-.2.7-.3,0,0,0,.2,0,.3h0s0,0,.1,0c0,0,0-.1,0-.2,0,0,.1,0,.2,0,0-.1.1-.3.2-.4.3,0,.5-.5.8-.8.1,0,.2,0,.4,0,0,0,0,0,.1,0,.3.1.7,0,1,0,0,0,0,.2,0,.2.2.2.3.2.5.3,0,0,.2,0,.3,0,.1,0,.3,0,.4.2,0,0,.1,0,.2.1.1,0,.2.2.3.2,0,0,.1.1.2.2,0,0,.1,0,.2,0,0,0,0,0,.1,0,0,0,.1,0,.2,0,0,0,0,.1,0,.1.9-.2,1.7.6,2.4,1.7h0c.3.8.9.9,1.2,1.9.1,0,.3,0,.4,0,0,.1.2.2.3.3.2,0,.4.3.6.4,1.2.3,2.3.2,3.4,1.2.8.7,1.6.5,2.4.4.2-.3.3-.5.5-.6.2,0,.3,0,.5-.2.5,0,1,.3,1.5.2.3,0,.7.3,1-.3.2.1.3.2.5,0,.3.1.7.2,1,.3.3,0,.6.1,1-.1h0c0,0,.2-.2.2-.3h0c.2-.3.5,0,.6-.4.3-.7.8-1,1.2-1.3.4,0,.4-.6.4-1.1.3,0,.6,0,.9.4.4.6.9.8,1.5.3.7-.1,1.4.3,2-.3,0-.1.1-.3.2-.3,0,0,0,0,0,0,.5.2,1.1.3,1.5-.3.2.5.6.2.8.3,0,.1.1.2.2.3.5-.2,1,.4,1.4-.4.3,0,.5,0,.7.2.4.3.5-.1.6-.6.6.2,1.1-.6,1.6-1,1,1,1.5.8,2.2-1,0-.1.1-.2.2-.1,0,0,0,0-.2.1.2.2.2.6.2.9.1,1.7.8,2.4,1.6,1.7.2-.2.3-.4.5-.2l1,.8c.3.5.8.2,1.2.8.3.4.4-.8.8-.8.3,0,.7,0,1,0,0,0,.1-.2.2-.2.9,1.1,1.9.3,2.9.6.7.6,1.3.6,2,0,.6.2,1.1.5,1.7-.2.2-.2.5-.1.8-.2.3.2.6,0,.9,0,1-.2,2,0,3,.2.5.2,1.1.3,1.7-.2.3-.3.7-.2,1.1,0,.4,0,.7,0,.9-.7.5-1.4,1.1-2.5,2-2.9,0,0,.1,0,.2-.1.5-1.5,1.3-1.1,2.1-1.2,0,0,.2-.1.3-.2.4,0,.7,0,1-.4.7,0,1.5.2,2.2,0,.7-.2,1.6.4,2-1.4,0-.3.3-.3.5-.2h0c0,.2.1.4.2.6.3.2.5,0,.6-.5.3-.1.5-.1.8,0,0,.1.1,0,.2,0,.1-.3.2-.6.4-.7h0c0,0,0-.1,0-.2.1,0,.2,0,.3-.3.1,0,.2-.2.2-.3,0,0,0,0,.1,0,0,0,0,0,.1-.1.1,0,.2,0,.3,0,0,0,0,0,.1-.1h.1s.1,0,.2,0c0,0,0,0,0-.1h0c.1,0,.3,0,.4-.2.2-.2.5-.1.7,0,.1,0,.2-.2.3-.3,0,0,0-.1.1-.1.1-.2.3-.3.4-.5v3.1c0,.1,1.8.3,1.8.4,0,2,.1,2.1,1.2,1.5.3,0,.5,0,.8,0,.1,0,.2,0,.3,0,.2-.2.5,0,.7-.3.9-.2,1.8-.9,2.7-1.1.3,0,.5,0,.8.2.7.4,1.5.3,2.3.2.5,0,.9,0,1.4,0,.3,0,.8-.3,1.1.4.5.3,1.1.4,1.6.4,0,.1,0,.2,0,.3.8,1.6,2,2.2,3,3.5.3,0,.6.2.9.3.4.6.8,1.2,1.3,1.5.4.2.8.8,1,1.6.1.4.3.8.6.9.3.8.7,1.3,1.3,1,.4-.2.7.3,1.1.4,0,0,0,0,0,0,.5.6.9,1.2,1.6.9.2.1.5.2.7.4.5.5.9.5,1.4,0,.2-.3.5-.5.7-.4.5,0,.9-.5,1.1-1.3,0,0,0,0,.1-.1.4,0,.7-.5,1.1,0,.2.2.5,0,.7-.3.3-.5.8-.9,1.2-1.3.1.1.3.2.4.4.8-.1,1.6.3,2.4-.2.6,0,1.1-.2,1.6-.7.6-.6,1.3-1,2-1.1.4,0,.8-.4,1-1.1,0,0,0-.2,0-.3.1,0,.2-.2.3-.4.7-.7,1.5-.8,2-1.9.1,0,.2-.2.2-.4.3-.2.6-.2.8,0,.5.4.9.2,1.4-.4,0-.3.2-.4.3-.7,0,0,0,0,.1,0,.3.5.7.8,1.2.9.1,0,.2-.1.4-.2.6.7,1.2,1,1.9.5.3-.2.6,0,.9.3.4.4.8.9,1.3.6.1.1.3.1.4.4,0,0,0,.1,0,.2,0,.1.2.2.3.2,0,0,.2,0,.2,0,0,0,.2,0,.2,0,0,0,.2,0,.2.1,0,0,0,0,.1,0,0,0,.2,0,.3,0,0,0,.2-.1.2-.2,0,0,0,0,0-.2.7.3,1.3.9,2,.2.2,0,.4-.4.6-.6,0,.2,0,.3.1.5,0,.8.4,1.3.8,1.6.4.3.7.8.9,1.6.2.3.3.7.6.8,0,0,0,0,.1,0,.3.8.6,1.4,1.3,1.4.2,0,.3.2.4.5.1.5.4.7.6.8,0,.2.2.3.3.3h0c.5.9,1.2,1.6,1.2,3.2.7.9,1.2,2.4,1.8,3.4.1,0,.2,0,.3.1,0,0,.1.2.2.3.1.2.2.2.3.2,0,.1,0,.2.1.2.4.5.7,1,1.1,1.6,0,.6.3,1,.6,1.1,0,0,0,0,.1,0,.1.2.3.3.5.3-.1,0-.2-.1-.3-.2.1,0,.2,0,.3.2,0,0,.1,0,.2,0,.5,1,1.1,1.7,1.6,2.5.2.4.5,0,.7.4,0,0,.1,0,.2,0,0,.1.2.3.3.3,0,0,0,0,.1,0,.1.1.2.1.3,0,0,.1,0,.2.1.3,0,0,.1,0,.1,0h.8c.8,1.2.9,1.2,1.4.4.2-.2.4-.5.4-.9-.1-1,.4-1.2.6-1.7.2-.1.3-.4.4-.7.4,0,.7.2.8-.8,0,0,0-.1,0-.2,0,0,.2-.1.2-.1.5.2,1-.4,1.5-.3,0,0,.2,0,.3,0,0,0,0,0,.1,0,.4,0,.8,0,1.2-.4.6-.5,1.1-1.3,1.4-2.4.1-.4.3-.6.5-.9.5-.5.5-1.6.7-2.3,0-1,.3-1.7.8-2.1.5.4.9.5,1.4,0,.3-.4.7-.5,1-.7,1.7-1.5,3.5-1.3,5.2-1.3,0,0,.2-.1.2-.1.6.5,1.6.6,2.3.3.1.1.2.2.4.2,1.2.6,2.3.3,3.5,0,0,0,.2-.2.3-.3,0,0,0,0,0,0,.2.1.5,0,.7.2,0,0,0,.2,0,.3.1.2.3.2.4,0,.1-.1.3-.1.4,0,0,0,.1,0,.2,0,0,.1,0,.2.1.3,0,0,.2,0,.3,0,0,0,0-.2,0-.3,0,0,0,0,0-.1h0c.1.1.2,0,.2-.2.3-.5.7-.7,1.2-.5.3.1.9.3.8-.9,0,0,0-.1.1-.2,0-.2,0-.4,0-.6.6,1.4,1.6,1.5,2.4,2.2,0,0,.2,0,.3,0,0,0,0,0,0,0,0,0,0,.1,0,.2,0,.2.1.3.2.4,0,0,0,0,.1,0,.2,0,.5,0,.6.7.3,1,.5,0,.8-.2,0,.1.2.2.3.3.1,0,.2.1.3.1.4-.3,1.1.2,1.4-.5.7.8,1.4,1.1,2.2,1.1.1,0,.2,0,.3,0,.2.5.5.8.7.3.2-.4.6-.3.8-.7,0,0,.1,0,.1-.1,0,0,.1,0,.2,0,.5.2.9-.3,1.3-.6,1.1-.7,2.1-1.6,3.2-.7.1.1.3-.2.5-.3.2-.2.4-.2.6-.3,0,0,0,0,0,0,.9.6,1.7,1.2,2.6,1.5,0,.1,0,.3,0,.4,0,.2,0,.3,0,.5,0,.1.1.2.2.3,0,0,.1.2.2.3,0,0,.1.2.2.3,0,0,.1.1.2.1,0,0,.1.1.2.2,0,0,.1.1.2.1h0c.8.1,1.3,1.4,2.1,1.5.5.5,1.1.2,1.7.3.1-.1.3-.3.4-.4.1,0,.3,0,.4,0,.1.8.4,1.4.6,2.1,0,.1.1.3.2.4h0c0,.2.3.1.4.4h0c0,.1.1.2.2.3,0,.1.1.3.2.4h0c.1.2.2.2.3.1,0,0,.1.2.2.2,0,0,0,0,.1.1.2,0,.5.3.7,0,.2-.4.5-.3.7,0,.2.3.4.3.5,0,.3-.4.5-.3.6.3.2,1.2.6.4.9.3h0c0,0,.2-.3.2-.5,0,0,0-.2,0-.2,0-.1.2-.2.2-.3.1.2.3,0,.4.3,0,0,.1,0,.2,0,0,0,.2.2.2.3,0,0,0,0,.1,0,.1-.1.2-.2.3-.3,0,0,.1,0,.2,0,0-.1.1-.1.2,0,.1,0,.3,0,.4,0,0-.3.1-.5.2-.8,0-.3,0-.7,0-1,.4.1.8,0,1.2,0,.8.9,1.5,0,2.2-.5.4,0,.8.2,1.1-.4,0,0,.1.1.2.2.1,0,.3,0,.4,0,.5-.2,1-.2,1.6-.4,0,0,0,0,0,0v.3c.3,0,.5-.2.7-.3,0,0,0,.2,0,.3h0s0,0,.1,0c0,0,0-.1,0-.2,0,0,.1,0,.2,0,0-.1.1-.3.2-.4.3,0,.5-.5.8-.8.1,0,.2,0,.4,0,0,0,0,0,.1,0,.3.1.7,0,1,0,0,0,0,.2,0,.2.2.2.3.2.5.3,0,0,.2,0,.3,0,.1,0,.3,0,.4.2,0,0,.1,0,.2.1.1,0,.2.2.3.2,0,0,.1.1.2.2,0,0,.1,0,.2,0,0,0,0,0,.1,0,0,0,.1,0,.2,0,0,0,0,.1,0,.1.9-.2,1.7.6,2.4,1.7h0c.3.8.9.9,1.2,1.9.1,0,.3,0,.4,0,0,.1.2.2.3.3.2,0,.4.3.6.4,1.2.3,2.3.2,3.4,1.2.8.7,1.6.5,2.4.4.2-.3.3-.5.5-.6.2,0,.3,0,.5-.2.5,0,1,.3,1.5.2.3,0,.7.3,1-.3.2.1.3.2.5,0,.3.1.7.2,1,.3.3,0,.6.1,1-.1h0c0,0,.2-.2.2-.3h0c.2-.3.5,0,.6-.4.3-.7.8-1,1.2-1.3.4,0,.4-.6.4-1.1.3,0,.6,0,.9.4.4.6.9.8,1.5.3.7-.1,1.4.3,2-.3,0-.1.1-.3.2-.3,0,0,0,0,0,0,.5.2,1.1.3,1.5-.3.2.5.6.2.8.3,0,.1.1.2.2.3.5-.2,1,.4,1.4-.4.3,0,.5,0,.7.2.4.3.5-.1.6-.6.6.2,1.1-.6,1.6-1,1,1,1.5.8,2.2-1,0-.1.1-.2.2-.1,0,0,0,0-.2.1.2.2.2.6.2.9.1,1.7.8,2.4,1.6,1.7.2-.2.3-.4.5-.2.3.3.7.6,1,.8.3.5.8.2,1.2.8.3.4.4-.8.8-.8.3,0,.7,0,1,0,0,0,.1-.2.2-.2.9,1.1,1.9.3,2.9.6.7.6,1.3.6,2,0,.6.2,1.1.5,1.7-.2.2-.2.5-.1.8-.2.3.2.6,0,.9,0,1-.2,2,0,3,.2.5.2,1.1.3,1.7-.2.3-.3.7-.2,1.1,0,.4,0,.7,0,.9-.7.5-1.4,1.1-2.5,2-2.9,0,0,.1,0,.2-.1.5-1.5,1.3-1.1,2.1-1.2,0,0,.2-.1.3-.2.4,0,.7,0,1-.4.7,0,1.5.2,2.2,0,.7-.2,1.6.4,2-1.4,0-.3.3-.3.5-.2h0c0,.2.1.4.2.6.3.2.5,0,.6-.5.3-.1.5-.1.8,0,0,.1.1,0,.2,0,.1-.3.2-.6.4-.7h0c0,0,0-.1,0-.2.1,0,.2,0,.3-.3.1,0,.2-.2.2-.3,0,0,0,0,.1,0,0,0,0,0,.1-.1.1,0,.2,0,.3,0,0,0,0,0,.1-.1h.1s.1,0,.2,0c0,0,0,0,0-.1h0c.1,0,.3,0,.4-.2.2-.2.5-.1.7,0,.1,0,.2-.2.3-.3,0,0,0-.1.1-.1.1-.2.3-.3.4-.5v1.4c0,.1,1.8.3,1.8.4,0,2,.1,2.1,1.2,1.5.3,0,.5,0,.8,0,.1,0,.2,0,.3,0,.2-.2.5,0,.7-.3.9-.2,1.8-.9,2.7-1.1.3,0,.5,0,.8.2.7.4,1.5.3,2.3.2.5,0,.9,0,1.4,0,.3,0,.8-.3,1.1.4.5.3,1.1.4,1.6.4,0,.1,0,.2,0,.3.8,1.6,2,2.2,3,3.5.3,0,.6.2.9.3.4.6.8,1.2,1.3,1.5.4.2.8.8,1,1.6.1.4.3.8.6.9.3.8.7,1.3,1.3,1,.4-.2.7.3,1.1.4,0,0,0,0,0,0,.5.6.9,1.2,1.6.9.2.1.5.2.7.4.5.5.9.5,1.4,0,.2-.3.5-.5.7-.4.5,0,.9-.5,1.1-1.3,0,0,0,0,.1-.1.4,0,.7-.5,1.1,0,.2.2.5,0,.7-.3.3-.5.8-.9,1.2-1.3.1.1.3.2.4.4.8-.1,1.6.3,2.4-.2.6,0,1.1-.2,1.6-.7.6-.6,1.3-1,2-1.1.4,0,.8-.4,1-1.1,0,0,0-.2,0-.3.1,0,.2-.2.3-.4.7-.7,1.5-.8,2-1.9.1,0,.2-.2.2-.4.3-.2.6-.2.8,0,.5.4.9.2,1.4-.4,0-.3.2-.4.3-.7,0,0,0,0,.1,0,.3.5.7.8,1.2.9.1,0,.2-.1.4-.2.6.7,1.2,1,1.9.5.3-.2.6,0,.9.3.4.4.8.9,1.3.6.1.1.3.1.4.4,0,0,0,.1,0,.2,0,.1.2.2.3.2,0,0,.2,0,.2,0,0,0,.2,0,.2,0,0,0,.2,0,.2.1,0,0,0,0,.1,0,0,0,.2,0,.3,0,0,0,.2-.1.2-.2,0,0,0,0,0-.2.7.3,1.3.9,2,.2.2,0,.4-.4.6-.6,0,.2,0,.3.1.5,0,.8.4,1.3.8,1.6.4.3.7.8.9,1.6.2.3.3.7.6.8,0,0,0,0,.1,0,.3.8.6,1.4,1.3,1.4.2,0,.3.2.4.5.1.5.4.7.6.8,0,.2.2.3.3.3h0c.5.9,1.2,1.6,1.2,3.2.7.9,1.2,2.4,1.8,3.4.1,0,.2,0,.3.1,0,0,.1.2.2.3.1.2.2.2.3.2,0,.1,0,.2.1.2.4.5.7,1,1.1,1.6,0,.6.3,1,.6,1.1,0,0,0,0,.1,0,.1.2.3.3.5.3-.1,0-.2-.1-.3-.2.1,0,.2,0,.3.2,0,0,.1,0,.2,0,.5,1,1.1,1.7,1.6,2.5.2.4.5,0,.7.4,0,0,.1,0,.2,0,0,.1.2.3.3.3,0,0,0,0,.1,0,.1.1.2.1.3,0,0,.1,0,.2.1.3,0,0,.1,0,.1,0h.8c.8,1.2.9,1.2,1.4.4.2-.2.4-.5.4-.9-.1-1,.4-1.2.6-1.7.2-.1.3-.4.4-.7.4,0,.7.2.8-.8,0,0,0-.1,0-.2,0,0,.2-.1.2-.1.5.2,1-.4,1.5-.3,0,0,.2,0,.3,0,0,0,0,0,.1,0,.4,0,.8,0,1.2-.4.6-.5,1.1-1.3,1.4-2.4.1-.4.3-.6.5-.9.5-.5.5-1.6.7-2.3,0-1,.3-1.7.8-2.1.5.4.9.5,1.4,0,.3-.4.7-.5,1-.7,1.7-1.5,3.5-1.3,5.2-1.3,0,0,.2-.1.2-.1.6.5,1.6.6,2.3.3.1.1.2.2.4.2,1.2.6,2.3.3,3.5,0,0,0,.2-.2.3-.3,0,0,0,0,0,0,.2.1.5,0,.7.2,0,0,0,.2,0,.3.1.2.3.2.4,0,.1-.1.3-.1.4,0,0,0,.1,0,.2,0,0,.1,0,.2.1.3,0,0,.2,0,.3,0,0,0,0-.2,0-.3,0,0,0,0,0-.1h0c.1.1.2,0,.2-.2.3-.5.7-.7,1.2-.5.3.1.9.3.8-.9,0,0,0-.1.1-.2,0-.2,0-.4,0-.6.6,1.4,1.6,1.5,2.4,2.2,0,0,.2,0,.3,0,0,0,0,0,0,0,0,0,0,.1,0,.2,0,.2.1.3.2.4,0,0,0,0,.1,0,.2,0,.5,0,.6.7.3,1,.5,0,.8-.2,0,.1.2.2.3.3.1,0,.2.1.3.1.4-.3,1.1.2,1.4-.5.7.8,1.4,1.1,2.2,1.1.1,0,.2,0,.3,0,.2.5.5.8.7.3.2-.4.6-.3.8-.7,0,0,.1,0,.1-.1,0,0,.1,0,.2,0,.5.2.9-.3,1.3-.6,1.1-.7,2.1-1.6,3.2-.7.1.1.3-.2.5-.3.2-.2.4-.2.6-.3,0,0,0,0,0,0,.9.6,1.7,1.2,2.6,1.5,0,.1,0,.3,0,.4,0,.2,0,.3,0,.5,0,.1.1.2.2.3,0,0,.1.2.2.3,0,0,.1.2.2.3,0,0,.1.1.2.1,0,0,.1.1.2.2,0,0,.1.1.2.1h0c.8.1,1.3,1.4,2.1,1.5.5.5,1.1.2,1.7.3.1-.1.3-.3.4-.4.1,0,.3,0,.4,0,.1.8.4,1.4.6,2.1,0,.1.1.3.2.4h0c0,.2.3.1.4.4h0c0,.1.1.2.2.3,0,.1.1.3.2.4h0c.1.2.2.2.3.1,0,0,.1.2.2.2,0,0,0,0,.1.1.2,0,.5.3.7,0,.2-.4.5-.3.7,0,.2.3.4.3.5,0,.3-.4.5-.3.6.3.2,1.2.6.4.9.3h0c0,0,.2-.3.2-.5,0,0,0-.2,0-.2,0-.1.2-.2.2-.3.1.2.3,0,.4.3,0,0,.1,0,.2,0,0,0,.2.2.2.3,0,0,0,0,.1,0,.1-.1.2-.2.3-.3,0,0,.1,0,.2,0,0-.1.1-.1.2,0,.1,0,.3,0,.4,0,0-.3.1-.5.2-.8,0-.3,0-.7,0-1,.4.1.8,0,1.2,0,.8.9,1.5,0,2.2-.5.4,0,.8.2,1.1-.4,0,0,.1.1.2.2.1,0,.3,0,.4,0,.5-.2,1-.2,1.6-.4,0,0,0,0,0,0v.3c.3,0,.5-.2.7-.3,0,0,0,.2,0,.3h0s0,0,.1,0c0,0,0-.1,0-.2,0,0,.1,0,.2,0,0-.1.1-.3.2-.4.3,0,.5-.5.8-.8.1,0,.2,0,.4,0,0,0,0,0,.1,0,.3.1.7,0,1,0,0,0,0,.2,0,.2.2.2.3.2.5.3,0,0,.2,0,.3,0,.1,0,.3,0,.4.2,0,0,.1,0,.2.1.1,0,.2.2.3.2,0,0,.1.1.2.2,0,0,.1,0,.2,0,0,0,0,0,.1,0,0,0,.1,0,.2,0,0,0,0,.1,0,.1.9-.2,1.7.6,2.4,1.7h0c.3.8.9.9,1.2,1.9.1,0,.3,0,.4,0,0,.1.2.2.3.3.2,0,.4.3.6.4,1.2.3,2.4.2,3.4,1.2.8.7,1.6.5,2.4.4.2-.3.3-.5.5-.6.2,0,.3,0,.5-.2.5,0,1,.3,1.5.2.3,0,.7.3,1-.3.2.1.3.2.5,0,.3.1.7.2,1,.3.3,0,.6.1,1-.1h0c0,0,.2-.2.2-.3h0c.2-.3.5,0,.6-.4.3-.7.8-1,1.2-1.3.4,0,.4-.6.4-1.1.3,0,.6,0,.9.4.4.6.9.8,1.5.3.7-.1,1.4.3,2-.3,0-.1.1-.3.2-.3,0,0,0,0,0,0,.5.2,1.1.3,1.5-.3.2.5.6.2.8.3l.2.3c.5-.2,1,.4,1.4-.4.3,0,.5,0,.7.2.4.3.5-.1.6-.6.6.2,1.1-.6,1.6-1,1,1,1.5.8,2.2-1,0-.1.1-.2.2-.1,0,0,0,0-.2.1.2.2.2.6.2.9.1,1.7.8,2.4,1.6,1.7.2-.2.3-.4.5-.2l1,.8c.3.5.8.2,1.2.8.3.4.4-.8.8-.8.3,0,.7,0,1,0,0,0,.1-.2.2-.2.9,1.1,1.9.3,2.9.6.7.6,1.3.6,2,0,.6.2,1.1.5,1.7-.2.2-.2.5-.1.8-.2.3.2.6,0,.9,0,1-.2,2,0,3,.2.5.2,1.1.3,1.7-.2.3-.3.7-.2,1.1,0,.4,0,.7,0,.9-.7.5-1.4,1.1-2.5,2-2.9,0,0,.1,0,.2-.1.5-1.5,1.3-1.1,2.1-1.2,0,0,.2-.1.3-.2.4,0,.7,0,1-.4.7,0,1.5.2,2.2,0,.7-.2,1.6.4,2-1.4,0-.3.3-.3.5-.2h0c0,.2.1.4.2.6.3.2.5,0,.6-.5.3-.1.5-.1.8,0,0,.1.1,0,.2,0,.1-.3.2-.6.4-.7h0c0,0,0-.1,0-.2.1,0,.2,0,.3-.3.1,0,.2-.2.2-.3,0,0,0,0,.1,0,0,0,0,0,.1-.1.1,0,.2,0,.3,0,0,0,0,0,.1-.1h.1s.1,0,.2,0c0,0,0,0,0-.1h0c.1,0,.3,0,.4-.2.2-.2.5-.1.7,0,.1,0,.2-.2.3-.3,0,0,0-.1.1-.1.6-.7,1.5-1.5,1.4-2.9V69.3c0,0-2.7,0-2.8,0ZM96.6,642.2c0,0,0-.1-.1-.2,0,0,0,0,.1.2h0ZM97.1,11.1s0,0,0,0c0,0,0,0,0,0,0,0,0,0,0,.1ZM98,642.4h0c0,0,0,0,0,0ZM124.1,641.4h0s0,0,0,0h0s0,0,0,0c0,0,0,0,0,0,0,0,0,0,0,0ZM141.1,648.3s0,0,0,0c0,0,0,0,0,0,0,0,0,0,0,0ZM144.2,36.2h0s0,0,0,0c0,0,0,0,0,0ZM169.5,643.2h0s0,0,0,0c0,0,0,0,0,0,0,0,0,0,0,.1,0,0,0,0,0,0ZM313.2,655.8c0,0,0-.1-.1-.2,0,0,0,0,.1.2h0ZM313.6,24.7s0,0,0,0c0,0,0,0,0,0,0,0,0,0,0,.1ZM340.7,655h0s0,0,0,0h0s0,0,0,0c0,0,0,0,0,0,0,0,0,0,0,0ZM357.7,661.9s0,0,0,0c0,0,0,0,0,0,0,0,0,0,0,0ZM360.8,49.8h0s0,0,0,0c0,0,0,0,0,0ZM386,656.9h0s0,0,0,0c0,0,0,0,0,0,0,0,0,0,0,.1,0,0,0,0,0,0ZM529.8,667.8c0,0,0-.1-.1-.2,0,0,0,0,.1.2h0ZM530.2,36.7s0,0,0,0c0,0,0,0,0,0,0,0,0,0,0,.1ZM557.3,667h0s0,0,0,0h0s0,0,0,0c0,0,0,0,0,0,0,0,0,0,0,0ZM574.2,673.9s0,0,0,0c0,0,0,0,0,0,0,0,0,0,0,0ZM577.4,61.8h0s0,0,0,0c0,0,0,0,0,0ZM602.6,668.9h0s0,0,0,0c0,0,0,0,0,0,0,0,0,0,0,.1,0,0,0,0,0,0Z"/>
</svg>