<?xml version="1.0" encoding="UTF-8"?>
<svg id="Capa_2" data-name="Capa 2" xmlns="http://www.w3.org/2000/svg" viewBox="0 0 645.49 668.5">
  <defs>
    <style>
      .cls-1 {
        fill: #ebe7e1;
        stroke-width: 0px;
      }
    </style>
  </defs>
  <g id="Capa_1-2" data-name="Capa 1">
    <g>
      <polygon class="cls-1" points="640.1 1.21 640.1 1.22 640.11 1.22 640.1 1.21"/>
      <path class="cls-1" d="M351.49,668.24c.09-.14.21-.19.37-.14.36-.06.61-.29.85-.53h0c.26-.29.61-.3.96-.32.23-.05.46-.11.68-.19.48-.12,1-.07,1.47-.27.22-.14.45-.28.66-.43.37-.21.75-.41,1.15-.55,3.24-.47,3.38-2.76,3.11-5.29-.07-.3-.2-.58-.39-.82.91-.73,1.72-1.64,3.04-1.64.26-.05.52-.13.77-.23.25-.1.51-.2.77-.3.57-.38,1.28-.63,1.42-1.44.74-.63,1.6-.67,2.49-.46,1.47.35,2.74-.08,3.74-1.12.85-.88,2.04-1.14,2.94-1.89,1.48-.19,2.18-.86,2.07-2.01.04,0,.08.02.11.02.3.02.6,0,.89-.11.18-.09.35-.17.53-.26,1.3.71,2.72.39,4.16-.05,1.38.7,2.66.94,3.56-.71l-.02.03c.43-.26.3-.86.69-1.15l.02-.02c.16-.22.36-.4.59-.54l.07-.05c.14-.23.31-.44.51-.62h0c.41-.4.3-.97.48-1.44,1.11-1.37,2.07-2.98,4.1-3.05,1.15-.04,1.36-1.03,1.96-1.63.37.09.72.28,1.1.31.39-.04.76-.16,1.12-.3.77-.31,1.44-.73,1.97-1.32.06.07.12.14.19.22,1.32.89,2.75.3,4.14.29.3.44.81.74,1.37,1.01.95.45,1.7,1.16,2.53,1.76.28.12.57.2.88.22,2.84.17,5.69.51,8.51.69,1.76.11,3.92,1.06,5.66-.17.11.51.36.96.76,1.38.19.21.39.4.62.57.11.09.21.17.31.26.19.18.38.36.58.55.09.09.18.18.28.28.18.18.37.37.55.55.18.19.36.38.54.57.74.77,1.66.85,2.64.66,3.06-1.14,4.95,1.38,7.34,2.35.42.31.86.6,1.27.93.1.08.2.17.3.25.2.16.4.33.6.5.21.16.42.31.64.45.49.18,1.05.14,1.51.43.49.25,1.01.4,1.57.4.28-.01.55-.05.82-.15.76-.42,1.59-.56,2.43-.67,3.87,0,7.71.59,11.57.73.07.21.15.42.27.61.33.5.74.9,1.27,1.18.13.07.25.15.38.22.26.12.53.22.82.25.14,0,.28.04.42.05.14,0,.28.02.42.01.27,0,.54,0,.81-.06.64-.09,1.27-.04,1.89.05,1.8-.07,3.49.19,4.86,1.5,2.1,1.25,3.52-.03,4.93-1.35.22-.18.44-.35.66-.52.32-.26.61-.55.91-.84,1.62-1.01,3.57-.74,5.3-1.33,2.01-.69,3.88-.54,5.48,1.02,2.15.43,4.12,2.18,6.52.9.88-1.1,2.41-.65,3.42-1.45.38-.25.76-.52,1.23-.54.23.03.47.05.71.05.37,0,.74-.04,1.1-.16.24-.07.48-.14.69-.27.11-.07.22-.11.33-.17.22-.12.44-.25.63-.43.43-.28.83-.59,1.21-.92.39-.07.78-.13,1.16-.2.02.06.02.12.05.18.18.26.41.48.69.63.46.21.95.32,1.43.16,4.54-1.5,9.23-1.89,13.98-1.96,1.01-.12,1.56-1.14,2.66-1.22,5.86-.43,11.72-1.01,17.17,2.04.2.17.41.34.61.51.21.16.42.3.66.41.68.12,1.11.57,1.48,1.1.46.43.91.87,1.45,1.21.32.21.7.3,1.05.44.19-.02.33.05.43.21.46.6,1.04.88,1.8.68.73-.38,1.64-.44,2.14-1.22.45-.53.88-1.07,1.58-1.31,6.52-2.31,13.17-.28,17.4,5.32,1.98,1.4,3.78,3.23,6.53,2.9.12-.12.27-.16.44-.12,1.23.48,2.26-.36,3.4-.51.24-.09.49-.18.73-.27.35-.17.69-.35,1.04-.52.23-.12.46-.24.68-.38.34-.21.7-.38,1-.66,3.23-1.99,6.73-3.33,10.34-4.44.01-.01.03-.02.04-.03.49.56,1.12.83,1.87.84.26-.02.51-.06.77-.14.1,0,.21-.04.31-.07.13.07.25.14.39.19,0,.02.02.04.02.07.02.2.07.43.18.64.13.22.3.41.5.57.2.17.4.33.61.48.31.22.61.46.9.71.2.16.42.3.65.41.23.11.47.22.7.33,1.84.2,3.45,1.56,5.42,1.12,1.11.06,2.22.11,3.34.17.09.16.19.32.31.47,2.46-.2,3.12-1.96,3.56-3.91.04.02.07.05.11.07,1.25.07,1.54-.93,2.11-1.75,2.75-3.93,3.89-8.8,7.3-12.33.15-.24.27-.5.36-.77.19-.52.41-1.03.58-1.56.9-1.53,1.73-3.11,3.12-4.27.61-.28,1.23-.53,1.85-.78.4-.12.8-.2,1.19-.35,3.6-2.11,7.03-4.51,10.99-5.97,1.07-.39,2.28-.8,2.79-2.05.92-.43,2.07-.22,2.87-1.01,0,0,0,0,0,0,1.61-.39,1.5-1.7,1.44-2.88-.15-3.09-.31-6.18-.6-9.25-.69-7.23-1.65-14.43-1.29-21.74.15-3.05-.03-6.15-.13-9.18-.13-3.97-.3-7.96-.38-11.94-.07-3.5.62-6.99.48-10.43-.2-4.83-.47-9.67-.88-14.5-.26-2.37-.39-4.78-.46-7.14-.09-3.01-.74-6.1.28-9.12.28-.82.65-2.12.25-2.58-1.38-1.61-.76-3.36-.82-5.07,0-.23-.35-.45-.54-.67-.11-1.27,0-2.57-.6-3.76,0,0,0,0,0,0,.1-.15.09-.29-.03-.42,1.06-1.71.1-3.47.11-5.2.03-5.86.13-11.73-.63-17.56.42-.3.53-.74.47-1.23-.11.28-.23.56-.34.84.08-.29.12-.6.34-.84.13-.12.16-.26.09-.42.56-.87.58-1.74.08-2.62,0,0,0,0,0,0-.05-.37-.26-.59-.58-.71,0,0,0,0,0,0-.05-2.95-.11-366.26-.16-369.21-.23-.8-.27-1.59-.03-2.4.19-.17.22-.32.09-.46.21-.45.22-.95.23-1.44,0-.77-.07-1.56.3-2.28.06-.26.12-.52.14-.78.06-.26.11-.52.13-.79.14-.86-.22-1.62-.48-2.41-.03-.17-.02-.35-.03-.52.37-.79.39-1.75.95-2.45.09-.3.12-.61.1-.92-.38-1.86,1.28-3.42.79-5.3-.9-1.83-.98-3.75-.97-5.77.03-2.66.65-5.27.53-7.91-.48-10.59-.75-21.18-1.2-31.78.1-.29.19-.59.25-.89,0-.3-.03-.59-.13-.88-.1-1.59.88-3.02.68-4.63.02-.45.02-.89,0-1.34-.34-2.08-.75-4.16-.23-6.27.05-.3.09-.6.1-.9.04-.45.07-.89.04-1.34-.03-.44-.04-.87-.04-1.31.02-.43,0-.86-.06-1.29-.07-.27-.16-.54-.28-.8-.53-1.89-1.6-3.71-.91-5.79.01-.26.03-.53.06-.79.11-.64.3-1.27.27-1.93,0-.26-.03-.51-.09-.76-.58-.9-.51-1.9-.48-2.9.02-.25.07-.49.14-.73.28-.57.74-1.05.8-1.72.04-.26.06-.52.06-.78.02-.66.02-1.32-.06-1.98-.04-.4-.07-.81-.06-1.22.29-1.56-.35-3.02-.53-4.53.12-.42.12-.84,0-1.26-.2-1.05.3-2,.42-3,0-.47-.2-.84-.53-1.16-.32-1.8.1-3.59,0-5.39-.02-.02-.18-.13-.18-.13-.18.02-.3-.06-.36-.23-.16-.03-.29-.11-.4-.23-.89.29-1.78.12-2.66-.06-3.44-.58-6.91-.24-10.37-.22-2.34.02-4.71-.53-7.02.23-.2,0-.4,0-.61-.01-2.39-.44-4.79-.41-7.18-.01-.6.18-1.21.19-1.82.02,0-.05-.07-.09-.2-.14-.13-.05-.26,0-.39.15-4.94.22-9.87.42-14.81.09-.27.03-.39.18-.38.43,0,0,0,0,0,0-.08,0-.16,0-.24,0-.1-.01-.19-.02-.29-.06-.23-.12-.47-.24-.71-.36h-.22c-2.42.68-4.92-.03-7.35.48-.7-.05-1.39-.15-2.09-.14-13.69.27-27.39-.05-41.08.58-15.67.72-31.37.94-47.06,1.36-16.37.44-32.67,2.14-49.08,2.06-5.45-.03-10.97.35-16.46.75-6.38.46-12.78.52-19.17.81-2.51.12-4.95-.54-7.47-.49-10.07.22-20.15.37-30.23.38-1.85,0-4.17,1.23-5.55-1.24-.04-.07-.38.05-.58.06-5.89.21-11.78-.31-17.66.13-.4,0-.8-.02-1.2-.03-2-.24-4-.18-6,.03-2.4-.22-4.8-.27-7.2-.01-.79-.04-1.59-.12-2.38-.12-13.23,0-26.45.19-39.67.69-4.26.16-8.54-.06-12.78.57,0,0,0,0,0,0-.93-.23-1.85-.16-2.77.06-2,0-3.99.02-5.99.02-.2,0-.41-.01-.61-.02-3.45.06-6.89.1-10.34.19-1.46.04-2.96-.33-4.37.36h0s0,0,0,0c-.9-.21-1.8-.19-2.69.06-.6,0-1.19,0-1.79.01-.4-.16-.8-.23-1.21-.01-4.02.07-8.04-.1-12.05.25-.88.05-1.77.17-2.65.31,0,0-.01,0-.02,0,0,0,0,0,0,0,0,0,0,0,0,0-.29-.18-.58-.16-.87,0-.41.4-.8.39-1.15-.05,0,0,0,0,0,0,.36.36.74.39,1.14.05-.38-.03-.76-.06-1.14-.08-.28-.31-.55-.23-.81.06,0,0,0,0,0,0-.16-.09-.31-.07-.45.05-.1.1-.2.15-.3.2.1-.06.21-.12.3-.2-2.8,0-5.6-.02-8.4-.02-.12.02-.23.03-.35.05-1.31-.22-2.62-.45-3.95-.32-.32,0-.64,0-.95,0-1.94-.02-3.89.08-5.81-.38-.27-.07-.54-.13-.82-.17-.27-.02-.53-.04-.8-.04-.26,0-.51,0-.76,0-.24,0-.49,0-.73,0-.24,0-.48,0-.71,0h-.71c-.24,0-.48,0-.72,0-.38,0-.77,0-1.16,0h-1.28c-3.03-.03-6.07.13-9.09-.33-.76.02-1.51,0-2.24-.21-1.02.08-1.92-.37-2.84-.67-.29-.08-.59-.16-.88-.23-.48-.06-.96-.05-1.44.02-1.17.26-2.33.07-3.48-.1-5.09.8-10.17.9-15.23-.29-.32-.07-.63-.14-.95-.21-1.04-.18-2.1-.15-3.13-.33-.43-.08-.85-.2-1.28-.3-1.15-.13-2.31-.11-3.43-.41-.29-.09-.58-.16-.88-.21-.47-.05-.94-.04-1.41.02-.91.28-1.89.12-2.8.43-1.84.57-3.62.4-5.38-.33-1.84-.13-3.59-.89-5.46-.8-.48.05-.96.09-1.44.14-2.51,0-4.91-.98-7.44-.84-.86-.12-1.7-.3-2.56-.43-2.9.01-5.81.03-8.71-.24-1.02-.04-2.03-.06-3.05-.08-2.27.06-4.53.04-6.73-.6-.32-.07-.64-.07-.96,0-2.64,1.32-5.06-.43-7.6-.54-.15-.03-.29-.07-.44-.1-.15-.03-.29-.08-.44-.1-.29-.03-.58-.04-.88.02-.52.11-1.02.23-1.54.29-.36.04-.71.1-1.07.07-.35-.07-.67-.26-1.02-.29-.24-.06-.49-.11-.74-.09-.86-.19-1.73-.17-2.6-.14-.49,0-.98.01-1.47.11-5.29.95-10.66.71-16.01.9-.44.17-.75.39-.92.67-1.73-.55-3.59.21-5.31-.44-.14.1-.28.1-.41-.03-.92-.59-1.94-.31-2.91-.31-7.07-.03-14.14.03-21.2-.03-3.07-.03-6.16.32-9.22-.25-3.89.42-7.79.07-11.68-.07-2.25-.55-4.53-.18-6.8-.25C15.67.13,10.02.64,4.39.05,3.49.33,2.6.31,1.71,0,.89.16-.16-.06.02,1.42c.8,6.75.63,13.54.54,20.32-.01.97-.19,2.01.4,2.92-.03,1.59-.45,3.14-.33,4.76.44,6.15.32,12.31.52,18.46.21,6.55.54,13.09.49,19.65,0,.09.06.19.09.28.12.26.2.53.24.81-.08-.27-.16-.54-.24-.81-.08,1.47-.05,2.94-.13,4.4-.05.75-.12,1.52-.13,2.3-.6.74-.9,1.67-.98,2.73-.03.31-.05.62-.05.94-.14,1,.11,2.01.03,3.01,0,.28,0,.55.08.83.09.75.37,1.47.25,2.23,0,.26,0,.52.07.77.11.66.15,1.34.26,1.99.06.28.14.56.29.81.23.38.49.72.8,1.02.06.95.12,1.89.18,2.84.15.13.31.26.46.39,0,0,0,0,0,0,.04.32.07.63.11.95-.41,2,.27,4,0,5.99.06.07.12.15.18.22,0,.1,0,.19,0,.29.07.22.19.41.33.58,0,2.22.26,4.45-.51,6.62.38,1.04.48,2.14.46,3.23-.16,6.64.28,373.61.67,380.23.07,1.17-.09,2.38.54,3.47-.01,0-.02,0-.04,0,.22,1.59-.16,3.26.67,4.77.17,2.65-.09,5.32.6,7.93h0c-.02.33-.05.65-.07.98-.04,1.68-1.16,3.38.06,5.05,0,0,0,0,0,0-.37.74-.23,1.47.05,2.19.24.21.23.41-.01.61-.21.33-.18.68-.03,1.02-.66.94-.58,1.89,0,2.83,0,0,0,0,0,0l-.07.18.11.16c0,1.21-.01,2.41-.02,3.62,0,0,0,0,0,0,0,0,0,0,0,0-.18.39-.18.78-.02,1.17-.64,2.01.34,4.01.08,6.02,0,.19,0,.38,0,.57,0,.01,0,.03,0,.04-.28.31-.33.62-.17.93-.04.2-.07.4-.11.6,0,.31.01.61.04.92.34,1.46.59,2.92.04,4.39-.06.75-.11,1.49.14,2.22,1.05,3.32.02,7.14,1.47,10.37.11,2.46.27,4.91.52,7.35.48,4.7.66,9.39.54,14.1-.45.88-.54,2-.37,3.3.1.79,0,1.6.05,2.4.05.28.15.55.3.79.18.14.35.28.51.43.15,4.72,1.03,9.36,1.88,13.99-.01,1.48-.15,2.98.5,4.39,0,0,0,0,0,0,.01.34.02.68.03,1.02.06,1.46.95,2.63,1.34,3.98.42.33.5.8.53,1.29,2.17.77,4.36.47,6.56.18.32-.01.63-.03.95-.04.19.24.36.51.5.85,1.42,1.26,3.46,1.18,4.94,2.31.51.37,1.04.7,1.57,1.02.18.16.35.32.52.49.17.16.35.32.53.47.1.06.2.12.3.18.23.07.46.07.69.03.12-.02.23-.04.35-.06,1.16,1.34,2.67.71,4.07.73.38-.06.76-.13,1.14-.19,2.13.7,4.38.84,6.56,1.33,3.69.83,6.68,3.34,10.39,4.01.55,2.14,2.81,1.87,4.11,2.94.93.77,1.63.23,2.41-.16,2.96.71,5.91.71,8.85-.1.13-.11.25-.23.36-.35.92.73,1.82.64,2.7-.17.71,1.2,2.03,1.12,3.11,1.3,5.41.9,10.92,1.26,16.16,3.08.25.11.49.24.73.37.21.14.41.3.6.47.19.16.38.3.59.42.21.1.43.16.66.19.22.02.45.04.67.04.11,0,.22,0,.33,0,.87.5,1.57,1.22,2.08,2.04,1.01,1.62,2.57,1.8,4.25,2.15,1.99.41,3.6.15,5.08-1.2,1.42.82,2.58,0,3.79-.57.1-.09.21-.17.31-.26.19-.19.38-.38.57-.57.2-.18.4-.35.59-.53.21-.17.42-.33.63-.49,3.86-2.83,7.7-2,11.52.1.35.26.69.52,1.1.67.29.06.58.1.87.11.25,0,.5-.02.74-.06,0,.04,0,.08.01.13.13.25.31.46.52.65,1.21.91,2.59.91,4,.71,2.49,1.45,4.81.62,7.09-.55l-.02.02c.37-.3.9-.18,1.26-.49.08-.13.2-.17.35-.12.39-.07.67-.3.86-.64.23-.13.42-.32.59-.53h-.02c.18-.16.38-.29.6-.4.19-.07.38-.13.57-.2.09-.11.17-.22.26-.33,0,0,0,0-.01-.01.02-.02.04-.04.07-.05.34.13.66.2.89-.24.28-.13.46-.36.64-.6.96-1.33,2.04-2.39,3.89-2.3.55.03,1.22-.23,1.65-.58,2.44-1.95,5.43-.97,8.12-1.44,1.5-.27,3.07-.17,4.48-.96,1.58,0,3.02,1.23,4.68.55.27-.32.67-.5,1.03-.71.44.04.88.08,1.31.17,1.41-.33,2.89.25,4.32.13.33.14.66.29.99.44,4.17,1.82,8.76,1.97,13.05,3.33.34-.15.66-.25.98-.33,1.81,1.04,3.8,1.37,5.83,1.59.52.35,1.04.72,1.57,1.06.9.55,1.89.94,2.71,1.61.53.3,1.06.6,1.54.97.19.14.38.26.59.37.31.13.6.29.89.46.19.1.39.2.58.3.18.12.35.25.51.4.08.07.17.14.25.21.17.15.34.29.51.43.09.07.18.14.27.21.18.15.38.28.58.4.23.1.45.2.67.31,1.8.84,3.76,1.17,5.65,1.73.79.43,1.57.86,2.36,1.28,0,.06.06.12.18.19.12.07.26.02.4-.14,1.35,0,2.39-.82,3.54-1.33,1.49.24,2.78-.23,3.94-1.12.23-.1.47-.2.69-.31.22-.12.44-.25.64-.38.22-.12.43-.24.65-.37.46-.23.97-.37,1.44-.57.23-.15.42-.34.56-.58.03-.08.04-.16.06-.24.14.03.28.06.43.05.59-.07.9-.59,1.37-.85.25-.12.5-.22.75-.32.25-.12.47-.28.65-.49.14-.29.29-.52.45-.7.85-.07,1.67-.23,2.45-.57.75.16,1.51.4,2.2.28.83-.2,1.7-.32,2.16-1.13.09.05.17.11.27.15.13-.03.25-.04.38-.07.78.38,1.69.34,2.51.58.93.27,1.96.29,2.48,1.31.18.27.4.5.73.59v-.02c4.69,1.35,9.47,1.91,14.32,1.91.19.16.38.33.57.52.25.14.52.24.81.28.29.02.58.02.88-.02.28-.09.53-.22.76-.41.06-.06.1-.09.15-.14.46.09.92.19,1.37.28.06.15.11.31.16.48.19.39.44.73.78,1,.07.04.15.09.22.13.05.44.36.81.77,1.12,2.24,1.64,4.27,3.67,7.24,3.97.77.56.32,1.19.1,1.81.5,1.61,1.81,1.7,3.12,1.51,1.08-.16,2.19-.45,3.22-.1,1.85.63,3.69.53,5.56.34,4.33-1.22,8.85-1.35,12.65-.42.27.21.53.43.78.69.13.26.3.5.51.7.33.31.71.55,1.15.69.29.09.57.15.88.14.38-.02.76-.03,1.12,0,.37.39.69.83.98,1.3-.35.44-.53.96-.64,1.52,2.12,5.13,6.8,6.53,11.52,7.53,3.32.7,6.41,1.59,8.89,3.99.66.64,1.35,1.12,2.3,1.25,3.12.43,6.27.76,9.11,2.35.7.39,1.46.36,2.05-.2.07.11.16.22.25.32.92.81,2.03,1.25,3.22,1.29.02,0,.04,0,.06,0,.73.54,1.45,1.1,2.2,1.61.06.31.09.65.06,1.03,1.65,2.55,4.85,2.58,7,4.32.28.11.56.16.86.16.15-.02.29-.04.44-.06.2.22.39.44.59.66.22.14.41.33.55.55l.04.03c.16.14.29.3.38.49.1,0,.21,0,.31-.01.22-.04.4.02.55.18.23.16.45.31.68.46l-.1-.07c.75.68,1.57.41,2.38.17ZM354.49,659.16s.03-.02.04-.04c-.01.01-.03.02-.04.04,0,0,0,0,0,0ZM354.95,658.74c.06-.06.12-.11.18-.17,0,0,.02.02.03.03-.07.05-.14.09-.21.14ZM20.91,597.36s0,0,0,0c0,0,0,0,0,0,0,0,0,0,0,0,0,0,0,0,0,0ZM640.81,489.88v.03c-.3-.13-.52-.33-.62-.64.01,0,.02-.01.04-.02.2.21.39.42.59.63ZM214.09,617.77s0,0-.01,0c-.01-.02-.01-.05-.02-.07.01.02.02.04.03.06Z"/>
    </g>
  </g>
</svg>