<?xml version="1.0" encoding="UTF-8"?>
<svg id="Capa_2" data-name="Capa 2" xmlns="http://www.w3.org/2000/svg" viewBox="0 0 269.63 111.92">
  <defs>
    <style>
      .cls-1 {
        fill: #efedef;
        stroke-width: 0px;
      }
    </style>
  </defs>
  <g id="Capa_1-2" data-name="Capa 1">
    <path class="cls-1" d="M269.16,1.07c.09-.06.17-.13.25-.2.03-.04.07-.08.09-.12-1.66.02-3.34.04-5.02-.04-.94-.97-2.29-.7-3.45-.64-3.97.21-7.93.28-11.91.33-6.08.06-12.16.03-18.24.19-2.34.33-4.71.25-7.07.24-3.6-.02-7.2.03-10.8.01-6.5-.03-13.01-.09-19.51.12-.64.03-1.26-.16-1.9-.13-.97-.16-1.89.22-2.86.25-4.89.15-9.79,0-14.67-.06-6.76-.06-13.54-.13-20.29.03-6.12.14-12.23.2-18.34.25-4.69.04-9.37-.08-14.06-.06-4.82.01-9.65.21-14.47.36-5.3.18-10.63-.11-15.94.02-5.37.13-10.74-.2-16.11-.11-4.53.08-9.05.36-13.58.37-5.42,0-10.84-.13-16.25-.03-6.23.12-12.45.09-18.68.28-.99.03-1.99.06-2.99.07-6.33.13-12.67.04-19.01-.19-.93-.04-2.08-.29-2.81.59C.97,2.79-.08,2.36,0,3.46c.21,2.55.15,5.12.55,7.66-.02.23-.06.45-.05.67.14,4.99.27,9.98.45,14.97.55,14.92.78,29.83,1.09,44.76,0,.71-.29,1.45.13,2.15-.02.45-.05.9-.04,1.35.13,9.69.29,19.37.42,29.06.03,1.88.02,1.88,2.2,1.63.68.06,1.34.14,1.98.33.34-.05.7-.13,1.05-.17,1.65.34,3.1,1.21,4.86,1.24.1-.03.18,0,.24.06.65.17,1.29.23,1.92-.04.07-.06.13-.1.21-.13.73-.06,1.49-.24,2.22-.27,2.7-.1,5.38.36,8.04.23,1.34-.06,2.66-.01,3.97.12.31.04.63.09.95.15,1.71.33,3.3.88,4.66,1.67.43.25.84.43,1.26.55.58.18,1.17.23,1.83.2.24,0,.5-.02.74-.03.11.26.39.46.77.57,2.65.27,5.37-.15,7.97.62.14.04.32.02.48-.02,1.56-.4,3.17-.16,4.76-.17.62-.18,1.24-.34,1.86-.52,1.3.19,2.56.55,3.73.98,1.5.54,2.78.78,4.3.35.65-.18,1.49-.38,2.04-.19,1.39.48,2.65.01,3.96-.08.63-.04,1.24-.31,1.9-.18.52-.03,1.03-.06,1.55-.08.18-.01.29-.07.35-.17.1,0,.2,0,.3-.01.11-.11.23-.2.34-.27.93-.08,1.82.12,2.69.42.56.2,1.13.32,1.71.31,1.38-.02,2.67.7,4.09.32.08-.02.21.02.3.06,1.39.7,2.8.35,4.12-.09,1.18-.4,2.29-.93,3.61-.93.21,0,.42-.25.63-.39.55-.25,1.1-.52,1.65-.77.26-.11.35-.3.4-.52.41-.12.76-.33.94-.65.36-.64.97-.72,1.7-.67.25.02.51-.03.77-.05.92.19,2.01.54,2.74.05.66-.45,1.18-.44,1.85-.34.55.13,1.08.31,1.59-.08.17,0,.25-.11.34-.21l.97-.81c1.05-.15,2.1.03,3.15.03,0,.04-.03.06-.03.09.04.21.18.36.39.47.71.23,1.4-.08,2.12-.04.15,0,.3,0,.45-.02.15-.02.29-.06.41-.13.12-.07.24-.14.34-.22.1-.08.18-.17.25-.28,0-.06.03-.12.03-.18,1.01-.48,2.12-.18,3.17-.32h0c.21-.09.5-.06.67-.25.14-.06.24-.16.35-.25.18-.16.48-.11.65-.28h0c.07-.06.11-.12.13-.19.08,0,.14,0,.21-.05l.03-.02c.08-.11.18-.21.28-.3.18-.35.56-.37.94-.4,1.14-.11,2.29-.27,3.41-.43,1.68-.23,3.32-.58,5.03-.52.81.57,1.55.44,2.27.11.1.05.2.1.29.16.16.06.33.09.5.09.53-.05,1.06-.08,1.54-.29,3.89.11,7.78.15,11.67.35.51-.11,1.02-.17,1.53-.21,1.08.13,2.15.27,3.23.38.68.07,1.26.2,1.62.73.13.22.45.16.63.32.12.11.24.21.41.25v-.03c.62-.07,1.27-.62,1.87.04.03.05.07.1.09.16.32.23.75.26,1.08.46.13.04.25.06.39.07.4.01.81-.01,1.19.1.13.02.26.03.39.04.34,0,.64-.09.91-.25.11-.06.22-.11.34-.16.24-.08.47-.17.71-.23.13-.03.26-.06.38-.09.33-.09.66-.15,1-.18.14,0,.29-.02.42-.02,1.15,0,2.3,0,3.44,0,.14,0,.29.01.43.03.28.04.55.1.82.16.13.04.27.06.41.08.21.03.41.09.63.12.14.01.29.04.44.06.47.13.96.07,1.44.12.31.06.64.16.94.07,1.75-.53,3.53-.94,5.35-1.24.61-.1,1.05-.44,1.02-1.04-.04-.04-.09-.08-.13-.12h0c.1-.06.2-.12.3-.18.32-.07.64-.16.96-.16.15,0,.31.02.46.08,1.53.55,3.01.42,4.47-.16.4-.16.85-.25,1.25-.11,1.56.49,3.16.34,4.76.24.24-.21.55-.33.87-.28,1.18.16,1.97-.25,2.77-.99.88-.82,1.98-1.4,3.45-1.51,1.19-.09,2.49.1,3.59-.52.03-.04.05-.06.08-.1.2-.01.41-.03.62-.04.83-.27,1.71-.35,2.59-.45,3.58-.43,7.07-1.28,10.66-1.68,2.6-.29,5.16-.98,7.81-.93,3.43.05,6.71-.64,9.92-1.44,4.02-1.02,7.99-1.06,12.02-.33,1.45.27,2.87.48,4.34.15.33.06.66.11.97.21.15.04.3.06.46.05.22-.01.44-.06.66-.13.24.01.49-.01.75-.05.55-.08,1.1-.13,1.66-.14.19.11.39.28.58.53.14.04.29.09.43.13.22.06.42.15.63.24.14.06.29.1.44.12.68.1,1.36.25,2.02.21.29.02.58.02.88,0,.03-.06.05-.11.08-.16.08-.14.18-.27.29-.4.05-.06.11-.12.16-.18.11-.13.22-.26.32-.39.05-.07.1-.13.15-.21.11-.13.21-.28.29-.43.06-.17.13-.34.21-.5.57-1.32.7-2.72,1.03-4.09.3-.59.6-1.17.9-1.74.05,0,.1-.06.14-.14.05-.09,0-.18-.14-.28-.1-.95-.87-1.63-1.39-2.41.08-1.06-.39-1.94-1.24-2.7-.09-.16-.19-.32-.3-.47-.12-.15-.24-.3-.36-.42-.13-.15-.24-.3-.35-.44-.24-.32-.39-.66-.6-.98-.14-.15-.32-.28-.52-.36-.07-.01-.13-.01-.21-.02.02-.1.03-.2,0-.3-.1-.42-.56-.6-.81-.91-.12-.17-.23-.33-.33-.51-.12-.17-.27-.31-.46-.43-.24-.08-.45-.16-.61-.27-.13-.59-.32-1.16-.66-1.69.08-.53.23-1.08.07-1.56-.23-.57-.39-1.18-1.1-1.45.04-.07.08-.13.1-.2-.03-.09-.05-.18-.08-.27.26-.57.17-1.2.3-1.8.15-.67.09-1.39.91-1.83.21-.14.39-.31.44-.55h-.02c.78-3.38.9-6.78.53-10.21.13-.14.25-.29.39-.43.1-.18.16-.39.18-.59,0-.21-.03-.41-.08-.61-.1-.2-.23-.37-.41-.52-.05-.04-.08-.06-.13-.1.04-.33.08-.65.13-.98.13-.05.25-.1.4-.14.31-.16.57-.35.78-.61.03-.06.06-.11.08-.17.36-.06.66-.3.87-.62,1.21-1.68,2.76-3.23,2.79-5.35.41-.57.97-.3,1.5-.18,1.32-.45,1.29-1.39,1.03-2.28-.21-.76-.54-1.52-.33-2.27.39-1.34.17-2.63-.13-3.94-1.34-2.97-1.8-6.15-1.29-8.89.15-.2.32-.4.51-.59.21-.11.4-.25.55-.41.24-.25.41-.54.5-.85.05-.21.08-.42.05-.63-.05-.27-.08-.54-.08-.79.3-.28.65-.54,1.02-.77.39.21.85.32,1.33.36,4.13-1.82,4.96-5.2,5.44-8.59.34-2.38.84-4.62,2.67-6.51.49-.51.84-1.02.87-1.7.13-2.23.17-4.46,1.29-6.56.27-.51.19-1.05-.32-1.43ZM177.91,100.35h0s0,0,0,0h0Z"/>
  </g>
</svg>