<?xml version="1.0" encoding="iso-8859-1"?>
<!-- Uploaded to: SVG Repo, www.svgrepo.com, Generator: SVG Repo Mixer Tools -->
<svg fill="#000000" height="800px" width="800px" version="1.1" id="Layer_1" xmlns="http://www.w3.org/2000/svg" xmlns:xlink="http://www.w3.org/1999/xlink" 
	 viewBox="0 0 511.997 511.997" xml:space="preserve">
<g>
	<g>
		<g>
			<path d="M207.724,62.397c1.707,1.067,3.669,1.6,5.611,1.6c1.643,0,3.264-0.384,4.779-1.131l37.888-18.944l37.888,18.944
				c1.515,0.747,3.136,1.131,4.779,1.131c1.941,0,3.904-0.533,5.611-1.6c3.136-1.941,5.056-5.376,5.056-9.067V10.663
				c0-3.691-1.92-7.125-5.056-9.067c-3.136-1.963-7.083-2.112-10.368-0.469l-37.888,18.944L218.135,1.127
				c-3.307-1.643-7.232-1.472-10.368,0.469c-3.136,1.941-5.099,5.376-5.099,9.067V53.33
				C202.668,57.021,204.588,60.455,207.724,62.397z"/>
			<path d="M436.951,455.869c-5.824-21.376-20.949-81.707-20.949-103.872c0-15.019,4.267-35.947,9.216-60.16
				c3.989-19.541,8.491-41.685,12.011-66.325c0.491-3.499-0.768-6.997-3.349-9.365c-53.376-48.896-39.445-160.299-39.296-161.408
				c0.405-3.051-0.533-6.123-2.56-8.427c-2.027-2.304-4.949-3.627-8.021-3.627h-42.667c-5.888,0-10.667,4.779-10.667,10.667v21.333
				c0,90.731-44.587,131.925-73.877,149.205c-10.752-3.029-75.456-26.197-75.456-149.227V53.33c0-5.888-4.779-10.667-10.667-10.667
				h-42.667c-3.072,0-5.995,1.323-8.021,3.627c-2.027,2.304-2.965,5.376-2.56,8.448c0.149,1.109,14.208,112.384-39.296,161.387
				c-2.603,2.368-3.861,5.888-3.349,9.365c3.52,24.64,8.043,46.784,12.011,66.325c4.949,24.235,9.216,45.163,9.216,60.181
				c0,22.165-15.125,82.475-20.949,103.872c-1.451,5.355,1.429,10.923,6.656,12.821l117.333,42.667
				c1.173,0.427,2.411,0.64,3.627,0.64c3.179,0,6.251-1.408,8.341-4.011l29.44-36.8l-29.867-34.133
				c-5.099-5.824-7.915-13.312-7.915-21.056v-85.333c0-5.888,4.779-10.667,10.667-10.667s10.667,4.779,10.667,10.667v85.333
				c0,2.581,0.939,5.077,2.645,7.019l74.667,85.333c2.069,2.368,4.992,3.648,8.021,3.648c1.216,0,2.453-0.213,3.648-0.64
				l117.333-42.667C435.543,466.791,438.423,461.223,436.951,455.869z M202.113,419.367c-1.493,4.48-5.653,7.296-10.112,7.296
				c-1.109,0-2.24-0.171-3.371-0.555l-64-21.333c-5.589-1.856-8.597-7.893-6.741-13.483c1.856-5.568,7.872-8.64,13.483-6.741
				l64,21.333C200.961,407.741,203.991,413.778,202.113,419.367z M277.335,383.997c-5.888,0-10.667-4.779-10.667-10.667
				c0-5.888,4.779-10.667,10.667-10.667s10.667,4.779,10.667,10.667C288.001,379.218,283.223,383.997,277.335,383.997z
				 M277.335,298.663c-5.888,0-10.667-4.779-10.667-10.667s4.779-10.667,10.667-10.667s10.667,4.779,10.667,10.667
				S283.223,298.663,277.335,298.663z M387.372,404.775l-64,21.333c-1.131,0.384-2.261,0.555-3.371,0.555
				c-4.459,0-8.619-2.816-10.112-7.296c-1.856-5.589,1.152-11.627,6.741-13.483l64-21.333c5.632-1.899,11.627,1.173,13.483,6.741
				C395.991,396.882,392.961,402.919,387.372,404.775z"/>
		</g>
	</g>
</g>
</svg>