<?xml version="1.0" ?>

<!-- Uploaded to: SVG Repo, www.svgrepo.com, Generator: SVG Repo Mixer Tools -->
<svg fill="#000000" width="800px" height="800px" viewBox="0 0 512 512" version="1.1" xml:space="preserve" xmlns="http://www.w3.org/2000/svg" xmlns:xlink="http://www.w3.org/1999/xlink">

<g id="gift_box-box_-heart-love-valentine">

<path d="M408,160h-64c15.55-0.021,28.483-12.719,28.504-28.269c0.021-15.55-12.568-28.139-28.118-28.118   c0.023-17.486-15.9-31.228-34.048-27.504C297.124,78.82,288,91.085,288,104.575v5.667c-4.256-3.838-9.831-6.242-16-6.242h-32   c-6.169,0-11.744,2.404-16,6.242v-5.667c0-13.491-9.124-25.755-22.339-28.467c-18.148-3.724-34.071,10.018-34.048,27.504   c-15.549-0.021-28.138,12.568-28.118,28.118C139.517,147.281,152.45,159.979,168,160h-64c-17.673,0-32,14.327-32,32v8   c0,17.673,14.327,32,32,32h96v16H96v161.28c0,16.966,13.754,30.72,30.72,30.72H200c8.837,0,16-7.163,16-16V168h80v256   c0,8.837,7.163,16,16,16h73.28c16.966,0,30.72-13.754,30.72-30.72V248H312v-16h96c17.673,0,32-14.327,32-32v-8   C440,174.327,425.673,160,408,160z M232,152v-24c0-4.41,3.586-8,8-8h32c4.414,0,8,3.59,8,8v24H232z"/>

</g>

<g id="Layer_1"/>

</svg>